<svg xmlns="http://www.w3.org/2000/svg" xmlns:xlink="http://www.w3.org/1999/xlink" width="70" zoomAndPan="magnify" viewBox="0 0 52.5 52.499999" height="70" preserveAspectRatio="xMidYMid meet" version="1.0"><defs><g/><clipPath id="d1a67a72ed"><path d="M 0 0 L 52.003906 0 L 52.003906 52.003906 L 0 52.003906 Z M 0 0 " clip-rule="nonzero"/></clipPath><clipPath id="a6d808137c"><path d="M 16 4.683594 L 36 4.683594 L 36 33 L 16 33 Z M 16 4.683594 " clip-rule="nonzero"/></clipPath><clipPath id="05c08e8029"><path d="M 7.753906 27 L 44.15625 27 L 44.15625 41.085938 L 7.753906 41.085938 Z M 7.753906 27 " clip-rule="nonzero"/></clipPath></defs><g clip-path="url(#d1a67a72ed)"><path fill="#ffffff" d="M 0 0 L 52.003906 0 L 52.003906 52.003906 L 0 52.003906 Z M 0 0 " fill-opacity="1" fill-rule="nonzero"/><path fill="#ffffff" d="M 0 0 L 52.003906 0 L 52.003906 52.003906 L 0 52.003906 Z M 0 0 " fill-opacity="1" fill-rule="nonzero"/></g><g clip-path="url(#a6d808137c)"><path fill="#5e17eb" d="M 27.609375 27.328125 L 27.609375 6.289062 C 27.609375 5.863281 27.441406 5.457031 27.140625 5.152344 C 26.835938 4.855469 26.425781 4.683594 26 4.683594 C 25.574219 4.683594 25.167969 4.855469 24.863281 5.152344 C 24.558594 5.457031 24.394531 5.863281 24.394531 6.289062 L 24.394531 27.328125 C 24.394531 27.328125 21.324219 24.261719 19.613281 22.546875 C 19.308594 22.242188 18.902344 22.078125 18.476562 22.078125 C 18.050781 22.078125 17.640625 22.242188 17.335938 22.546875 C 16.710938 23.175781 16.710938 24.191406 17.335938 24.816406 L 24.921875 32.402344 C 25.210938 32.6875 25.59375 32.84375 26 32.84375 C 26.410156 32.84375 26.792969 32.6875 27.078125 32.402344 L 34.664062 24.816406 C 35.289062 24.191406 35.289062 23.175781 34.664062 22.546875 C 34.359375 22.242188 33.953125 22.078125 33.527344 22.078125 C 33.101562 22.078125 32.691406 22.242188 32.386719 22.546875 C 30.667969 24.261719 27.609375 27.328125 27.609375 27.328125 Z M 27.609375 27.328125 " fill-opacity="1" fill-rule="evenodd"/></g><g clip-path="url(#05c08e8029)"><path fill="#5e17eb" d="M 7.753906 38.136719 C 7.753906 38.945312 8.074219 39.71875 8.648438 40.285156 C 9.222656 40.855469 9.996094 41.179688 10.792969 41.179688 L 41.207031 41.179688 C 42.015625 41.179688 42.789062 40.855469 43.355469 40.285156 C 43.925781 39.710938 44.25 38.9375 44.25 38.136719 L 44.25 28.933594 C 44.25 28.046875 43.527344 27.328125 42.640625 27.328125 C 42.214844 27.328125 41.808594 27.5 41.503906 27.796875 C 41.199219 28.101562 41.035156 28.507812 41.035156 28.933594 L 41.035156 36.453125 C 41.035156 37.292969 40.355469 37.972656 39.511719 37.972656 L 12.488281 37.972656 C 11.644531 37.972656 10.96875 37.292969 10.96875 36.453125 L 10.96875 28.933594 C 10.96875 28.507812 10.792969 28.101562 10.5 27.796875 C 10.195312 27.492188 9.785156 27.328125 9.359375 27.328125 C 8.472656 27.328125 7.753906 28.046875 7.753906 28.933594 Z M 7.753906 38.136719 " fill-opacity="1" fill-rule="evenodd"/></g><g fill="#5e17eb" fill-opacity="1"><g transform="translate(2.661457, 45.488429)"><g><path d="M 1.671875 -3.40625 C 2.222656 -3.40625 2.644531 -3.257812 2.9375 -2.96875 C 3.226562 -2.6875 3.375 -2.265625 3.375 -1.703125 C 3.375 -1.140625 3.226562 -0.710938 2.9375 -0.421875 C 2.644531 -0.140625 2.222656 0 1.671875 0 L 0.4375 0 L 0.4375 -3.40625 Z M 1.625 -0.5625 C 1.976562 -0.5625 2.242188 -0.648438 2.421875 -0.828125 C 2.597656 -1.015625 2.6875 -1.304688 2.6875 -1.703125 C 2.6875 -2.109375 2.597656 -2.398438 2.421875 -2.578125 C 2.242188 -2.753906 1.976562 -2.84375 1.625 -2.84375 L 1.125 -2.84375 L 1.125 -0.5625 Z M 1.625 -0.5625 "/></g></g><g transform="translate(6.31312, 45.488429)"><g><path d="M 1.5 0.046875 C 1.25 0.046875 1.023438 -0.00390625 0.828125 -0.109375 C 0.640625 -0.210938 0.492188 -0.363281 0.390625 -0.5625 C 0.285156 -0.757812 0.234375 -1 0.234375 -1.28125 C 0.234375 -1.570312 0.285156 -1.816406 0.390625 -2.015625 C 0.492188 -2.210938 0.640625 -2.363281 0.828125 -2.46875 C 1.023438 -2.570312 1.25 -2.625 1.5 -2.625 C 1.75 -2.625 1.96875 -2.570312 2.15625 -2.46875 C 2.351562 -2.363281 2.503906 -2.210938 2.609375 -2.015625 C 2.710938 -1.816406 2.765625 -1.570312 2.765625 -1.28125 C 2.765625 -1 2.710938 -0.757812 2.609375 -0.5625 C 2.503906 -0.363281 2.351562 -0.210938 2.15625 -0.109375 C 1.96875 -0.00390625 1.75 0.046875 1.5 0.046875 Z M 1.5 -0.5 C 1.894531 -0.5 2.09375 -0.757812 2.09375 -1.28125 C 2.09375 -1.550781 2.039062 -1.75 1.9375 -1.875 C 1.832031 -2.007812 1.6875 -2.078125 1.5 -2.078125 C 1.09375 -2.078125 0.890625 -1.8125 0.890625 -1.28125 C 0.890625 -0.757812 1.09375 -0.5 1.5 -0.5 Z M 1.5 -0.5 "/></g></g><g transform="translate(9.308279, 45.488429)"><g><path d="M 1.375 0 L 0.703125 0 L 0.09375 -2.578125 L 0.6875 -2.578125 L 1.078125 -0.828125 L 1.125 -0.828125 L 1.609375 -2.578125 L 2.171875 -2.578125 L 2.671875 -0.828125 L 2.734375 -0.828125 L 3.09375 -2.578125 L 3.671875 -2.578125 L 3.0625 0 L 2.390625 0 L 1.90625 -1.75 L 1.859375 -1.75 Z M 1.375 0 "/></g></g><g transform="translate(13.076759, 45.488429)"><g><path d="M 0.375 0 L 0.375 -2.578125 L 1 -2.578125 L 1 -2.203125 L 1.046875 -2.1875 C 1.203125 -2.476562 1.460938 -2.625 1.828125 -2.625 C 2.117188 -2.625 2.332031 -2.539062 2.46875 -2.375 C 2.613281 -2.21875 2.6875 -1.984375 2.6875 -1.671875 L 2.6875 0 L 2.03125 0 L 2.03125 -1.59375 C 2.03125 -1.757812 1.992188 -1.878906 1.921875 -1.953125 C 1.859375 -2.035156 1.753906 -2.078125 1.609375 -2.078125 C 1.421875 -2.078125 1.273438 -2.015625 1.171875 -1.890625 C 1.066406 -1.773438 1.015625 -1.585938 1.015625 -1.328125 L 1.015625 0 Z M 0.375 0 "/></g></g><g transform="translate(16.09528, 45.488429)"><g><path d="M 1.0625 0.046875 C 0.832031 0.046875 0.65625 -0.015625 0.53125 -0.140625 C 0.414062 -0.265625 0.359375 -0.453125 0.359375 -0.703125 L 0.359375 -3.609375 L 1 -3.609375 L 1 -0.734375 C 1 -0.578125 1.066406 -0.5 1.203125 -0.5 C 1.234375 -0.5 1.269531 -0.503906 1.3125 -0.515625 L 1.34375 -0.515625 L 1.40625 -0.015625 C 1.375 0.00390625 1.328125 0.0195312 1.265625 0.03125 C 1.203125 0.0390625 1.132812 0.046875 1.0625 0.046875 Z M 1.0625 0.046875 "/></g></g><g transform="translate(17.576506, 45.488429)"><g><path d="M 1.5 0.046875 C 1.25 0.046875 1.023438 -0.00390625 0.828125 -0.109375 C 0.640625 -0.210938 0.492188 -0.363281 0.390625 -0.5625 C 0.285156 -0.757812 0.234375 -1 0.234375 -1.28125 C 0.234375 -1.570312 0.285156 -1.816406 0.390625 -2.015625 C 0.492188 -2.210938 0.640625 -2.363281 0.828125 -2.46875 C 1.023438 -2.570312 1.25 -2.625 1.5 -2.625 C 1.75 -2.625 1.96875 -2.570312 2.15625 -2.46875 C 2.351562 -2.363281 2.503906 -2.210938 2.609375 -2.015625 C 2.710938 -1.816406 2.765625 -1.570312 2.765625 -1.28125 C 2.765625 -1 2.710938 -0.757812 2.609375 -0.5625 C 2.503906 -0.363281 2.351562 -0.210938 2.15625 -0.109375 C 1.96875 -0.00390625 1.75 0.046875 1.5 0.046875 Z M 1.5 -0.5 C 1.894531 -0.5 2.09375 -0.757812 2.09375 -1.28125 C 2.09375 -1.550781 2.039062 -1.75 1.9375 -1.875 C 1.832031 -2.007812 1.6875 -2.078125 1.5 -2.078125 C 1.09375 -2.078125 0.890625 -1.8125 0.890625 -1.28125 C 0.890625 -0.757812 1.09375 -0.5 1.5 -0.5 Z M 1.5 -0.5 "/></g></g><g transform="translate(20.571664, 45.488429)"><g><path d="M 1 0.046875 C 0.832031 0.046875 0.6875 0.015625 0.5625 -0.046875 C 0.445312 -0.109375 0.359375 -0.195312 0.296875 -0.3125 C 0.234375 -0.425781 0.203125 -0.566406 0.203125 -0.734375 C 0.203125 -0.890625 0.234375 -1.015625 0.296875 -1.109375 C 0.359375 -1.210938 0.457031 -1.296875 0.59375 -1.359375 C 0.726562 -1.429688 0.910156 -1.488281 1.140625 -1.53125 C 1.285156 -1.550781 1.398438 -1.578125 1.484375 -1.609375 C 1.566406 -1.640625 1.617188 -1.671875 1.640625 -1.703125 C 1.671875 -1.742188 1.6875 -1.789062 1.6875 -1.84375 C 1.6875 -1.925781 1.65625 -1.988281 1.59375 -2.03125 C 1.539062 -2.082031 1.445312 -2.109375 1.3125 -2.109375 C 1.175781 -2.109375 1.039062 -2.070312 0.90625 -2 C 0.78125 -1.9375 0.671875 -1.851562 0.578125 -1.75 L 0.53125 -1.75 L 0.25 -2.171875 C 0.382812 -2.304688 0.546875 -2.414062 0.734375 -2.5 C 0.921875 -2.582031 1.125 -2.625 1.34375 -2.625 C 1.6875 -2.625 1.929688 -2.550781 2.078125 -2.40625 C 2.234375 -2.257812 2.3125 -2.054688 2.3125 -1.796875 L 2.3125 -0.671875 C 2.3125 -0.554688 2.363281 -0.5 2.46875 -0.5 C 2.507812 -0.5 2.546875 -0.503906 2.578125 -0.515625 L 2.609375 -0.515625 L 2.65625 -0.0625 C 2.625 -0.0390625 2.578125 -0.0195312 2.515625 0 C 2.453125 0.0078125 2.378906 0.015625 2.296875 0.015625 C 2.148438 0.015625 2.03125 -0.0078125 1.9375 -0.0625 C 1.851562 -0.125 1.796875 -0.21875 1.765625 -0.34375 L 1.703125 -0.359375 C 1.578125 -0.0859375 1.34375 0.046875 1 0.046875 Z M 1.203125 -0.4375 C 1.359375 -0.4375 1.476562 -0.484375 1.5625 -0.578125 C 1.65625 -0.679688 1.703125 -0.820312 1.703125 -1 L 1.703125 -1.265625 L 1.65625 -1.28125 C 1.613281 -1.25 1.5625 -1.222656 1.5 -1.203125 C 1.4375 -1.179688 1.347656 -1.160156 1.234375 -1.140625 C 1.085938 -1.109375 0.984375 -1.0625 0.921875 -1 C 0.867188 -0.945312 0.84375 -0.867188 0.84375 -0.765625 C 0.84375 -0.660156 0.875 -0.578125 0.9375 -0.515625 C 1 -0.460938 1.085938 -0.4375 1.203125 -0.4375 Z M 1.203125 -0.4375 "/></g></g><g transform="translate(23.288801, 45.488429)"><g><path d="M 1.265625 0.046875 C 1.066406 0.046875 0.890625 0 0.734375 -0.09375 C 0.578125 -0.195312 0.453125 -0.347656 0.359375 -0.546875 C 0.273438 -0.742188 0.234375 -0.988281 0.234375 -1.28125 C 0.234375 -1.582031 0.273438 -1.832031 0.359375 -2.03125 C 0.453125 -2.226562 0.578125 -2.375 0.734375 -2.46875 C 0.898438 -2.570312 1.09375 -2.625 1.3125 -2.625 C 1.46875 -2.625 1.601562 -2.59375 1.71875 -2.53125 C 1.832031 -2.476562 1.929688 -2.394531 2.015625 -2.28125 L 2.0625 -2.296875 L 2.0625 -3.609375 L 2.71875 -3.609375 L 2.71875 0 L 2.0625 0 L 2.0625 -0.328125 L 2.015625 -0.34375 C 1.941406 -0.21875 1.84375 -0.117188 1.71875 -0.046875 C 1.59375 0.015625 1.441406 0.046875 1.265625 0.046875 Z M 1.484375 -0.5 C 1.660156 -0.5 1.800781 -0.5625 1.90625 -0.6875 C 2.019531 -0.820312 2.078125 -1.019531 2.078125 -1.28125 C 2.078125 -1.550781 2.019531 -1.75 1.90625 -1.875 C 1.800781 -2.007812 1.660156 -2.078125 1.484375 -2.078125 C 1.296875 -2.078125 1.148438 -2.007812 1.046875 -1.875 C 0.941406 -1.75 0.890625 -1.550781 0.890625 -1.28125 C 0.890625 -1.007812 0.941406 -0.8125 1.046875 -0.6875 C 1.148438 -0.5625 1.296875 -0.5 1.484375 -0.5 Z M 1.484375 -0.5 "/></g></g><g transform="translate(26.377412, 45.488429)"><g/></g><g transform="translate(27.505854, 45.488429)"><g><path d="M 0.4375 0 L 0.4375 -3.40625 L 1.8125 -3.40625 C 2.164062 -3.40625 2.429688 -3.320312 2.609375 -3.15625 C 2.796875 -3 2.890625 -2.78125 2.890625 -2.5 C 2.890625 -2.289062 2.832031 -2.117188 2.71875 -1.984375 C 2.613281 -1.847656 2.457031 -1.75 2.25 -1.6875 L 2.25 -1.640625 C 2.363281 -1.585938 2.453125 -1.515625 2.515625 -1.421875 C 2.578125 -1.328125 2.640625 -1.191406 2.703125 -1.015625 L 3.046875 0 L 2.34375 0 L 2.015625 -1.015625 C 1.984375 -1.117188 1.945312 -1.195312 1.90625 -1.25 C 1.863281 -1.3125 1.804688 -1.351562 1.734375 -1.375 C 1.671875 -1.40625 1.585938 -1.421875 1.484375 -1.421875 L 1.125 -1.421875 L 1.125 0 Z M 1.734375 -1.953125 C 2.054688 -1.953125 2.21875 -2.101562 2.21875 -2.40625 C 2.21875 -2.71875 2.054688 -2.875 1.734375 -2.875 L 1.125 -2.875 L 1.125 -1.953125 Z M 1.734375 -1.953125 "/></g></g><g transform="translate(30.699599, 45.488429)"><g><path d="M 2.546875 -1.140625 L 0.890625 -1.140625 C 0.910156 -0.921875 0.972656 -0.757812 1.078125 -0.65625 C 1.191406 -0.550781 1.34375 -0.5 1.53125 -0.5 C 1.675781 -0.5 1.796875 -0.523438 1.890625 -0.578125 C 1.984375 -0.640625 2.054688 -0.722656 2.109375 -0.828125 L 2.15625 -0.828125 L 2.59375 -0.5625 C 2.5 -0.375 2.367188 -0.222656 2.203125 -0.109375 C 2.035156 -0.00390625 1.8125 0.046875 1.53125 0.046875 C 1.257812 0.046875 1.023438 0 0.828125 -0.09375 C 0.640625 -0.195312 0.492188 -0.347656 0.390625 -0.546875 C 0.285156 -0.753906 0.234375 -1 0.234375 -1.28125 C 0.234375 -1.570312 0.285156 -1.816406 0.390625 -2.015625 C 0.503906 -2.222656 0.65625 -2.375 0.84375 -2.46875 C 1.03125 -2.570312 1.242188 -2.625 1.484375 -2.625 C 1.847656 -2.625 2.125 -2.523438 2.3125 -2.328125 C 2.507812 -2.140625 2.609375 -1.859375 2.609375 -1.484375 C 2.609375 -1.347656 2.601562 -1.242188 2.59375 -1.171875 Z M 1.984375 -1.5625 C 1.984375 -1.757812 1.9375 -1.898438 1.84375 -1.984375 C 1.757812 -2.078125 1.640625 -2.125 1.484375 -2.125 C 1.148438 -2.125 0.957031 -1.9375 0.90625 -1.5625 Z M 1.984375 -1.5625 "/></g></g><g transform="translate(33.500843, 45.488429)"><g><path d="M 1.203125 0.046875 C 1.023438 0.046875 0.863281 0.0234375 0.71875 -0.015625 C 0.570312 -0.0546875 0.445312 -0.113281 0.34375 -0.1875 C 0.238281 -0.257812 0.160156 -0.34375 0.109375 -0.4375 L 0.46875 -0.8125 L 0.53125 -0.8125 C 0.613281 -0.695312 0.710938 -0.609375 0.828125 -0.546875 C 0.941406 -0.492188 1.066406 -0.46875 1.203125 -0.46875 C 1.328125 -0.46875 1.421875 -0.488281 1.484375 -0.53125 C 1.554688 -0.582031 1.59375 -0.648438 1.59375 -0.734375 C 1.59375 -0.796875 1.566406 -0.847656 1.515625 -0.890625 C 1.472656 -0.941406 1.398438 -0.976562 1.296875 -1 L 0.953125 -1.078125 C 0.703125 -1.140625 0.515625 -1.234375 0.390625 -1.359375 C 0.273438 -1.484375 0.21875 -1.644531 0.21875 -1.84375 C 0.21875 -2 0.257812 -2.132812 0.34375 -2.25 C 0.425781 -2.375 0.539062 -2.46875 0.6875 -2.53125 C 0.832031 -2.59375 1.003906 -2.625 1.203125 -2.625 C 1.441406 -2.625 1.632812 -2.585938 1.78125 -2.515625 C 1.9375 -2.453125 2.054688 -2.363281 2.140625 -2.25 L 1.796875 -1.875 L 1.75 -1.875 C 1.675781 -1.957031 1.59375 -2.015625 1.5 -2.046875 C 1.414062 -2.085938 1.316406 -2.109375 1.203125 -2.109375 C 0.953125 -2.109375 0.828125 -2.03125 0.828125 -1.875 C 0.828125 -1.8125 0.847656 -1.757812 0.890625 -1.71875 C 0.941406 -1.675781 1.03125 -1.640625 1.15625 -1.609375 L 1.46875 -1.546875 C 1.726562 -1.484375 1.914062 -1.390625 2.03125 -1.265625 C 2.15625 -1.140625 2.21875 -0.972656 2.21875 -0.765625 C 2.21875 -0.609375 2.175781 -0.46875 2.09375 -0.34375 C 2.019531 -0.21875 1.90625 -0.117188 1.75 -0.046875 C 1.59375 0.015625 1.410156 0.046875 1.203125 0.046875 Z M 1.203125 0.046875 "/></g></g><g transform="translate(35.876878, 45.488429)"><g><path d="M 1.5 0.046875 C 1.25 0.046875 1.023438 -0.00390625 0.828125 -0.109375 C 0.640625 -0.210938 0.492188 -0.363281 0.390625 -0.5625 C 0.285156 -0.757812 0.234375 -1 0.234375 -1.28125 C 0.234375 -1.570312 0.285156 -1.816406 0.390625 -2.015625 C 0.492188 -2.210938 0.640625 -2.363281 0.828125 -2.46875 C 1.023438 -2.570312 1.25 -2.625 1.5 -2.625 C 1.75 -2.625 1.96875 -2.570312 2.15625 -2.46875 C 2.351562 -2.363281 2.503906 -2.210938 2.609375 -2.015625 C 2.710938 -1.816406 2.765625 -1.570312 2.765625 -1.28125 C 2.765625 -1 2.710938 -0.757812 2.609375 -0.5625 C 2.503906 -0.363281 2.351562 -0.210938 2.15625 -0.109375 C 1.96875 -0.00390625 1.75 0.046875 1.5 0.046875 Z M 1.5 -0.5 C 1.894531 -0.5 2.09375 -0.757812 2.09375 -1.28125 C 2.09375 -1.550781 2.039062 -1.75 1.9375 -1.875 C 1.832031 -2.007812 1.6875 -2.078125 1.5 -2.078125 C 1.09375 -2.078125 0.890625 -1.8125 0.890625 -1.28125 C 0.890625 -0.757812 1.09375 -0.5 1.5 -0.5 Z M 1.5 -0.5 "/></g></g><g transform="translate(38.872037, 45.488429)"><g><path d="M 1.171875 0.046875 C 0.890625 0.046875 0.675781 -0.03125 0.53125 -0.1875 C 0.394531 -0.34375 0.328125 -0.570312 0.328125 -0.875 L 0.328125 -2.578125 L 0.984375 -2.578125 L 0.984375 -0.953125 C 0.984375 -0.796875 1.015625 -0.679688 1.078125 -0.609375 C 1.148438 -0.535156 1.253906 -0.5 1.390625 -0.5 C 1.566406 -0.5 1.707031 -0.554688 1.8125 -0.671875 C 1.914062 -0.785156 1.96875 -0.972656 1.96875 -1.234375 L 1.96875 -2.578125 L 2.609375 -2.578125 L 2.609375 0 L 1.984375 0 L 1.984375 -0.375 L 1.9375 -0.390625 C 1.851562 -0.242188 1.75 -0.132812 1.625 -0.0625 C 1.507812 0.0078125 1.359375 0.046875 1.171875 0.046875 Z M 1.171875 0.046875 "/></g></g><g transform="translate(41.853177, 45.488429)"><g><path d="M 0.375 0 L 0.375 -2.578125 L 1 -2.578125 L 1 -2.1875 L 1.046875 -2.1875 C 1.109375 -2.320312 1.1875 -2.421875 1.28125 -2.484375 C 1.382812 -2.554688 1.507812 -2.59375 1.65625 -2.59375 C 1.800781 -2.59375 1.914062 -2.570312 2 -2.53125 L 1.890625 -1.96875 L 1.84375 -1.953125 C 1.800781 -1.972656 1.757812 -1.984375 1.71875 -1.984375 C 1.675781 -1.992188 1.628906 -2 1.578125 -2 C 1.390625 -2 1.25 -1.9375 1.15625 -1.8125 C 1.0625 -1.6875 1.015625 -1.484375 1.015625 -1.203125 L 1.015625 0 Z M 0.375 0 "/></g></g><g transform="translate(43.874092, 45.488429)"><g><path d="M 1.5 0.046875 C 1.25 0.046875 1.023438 -0.00390625 0.828125 -0.109375 C 0.640625 -0.210938 0.492188 -0.363281 0.390625 -0.5625 C 0.285156 -0.757812 0.234375 -1 0.234375 -1.28125 C 0.234375 -1.570312 0.285156 -1.816406 0.390625 -2.015625 C 0.492188 -2.210938 0.640625 -2.363281 0.828125 -2.46875 C 1.023438 -2.570312 1.242188 -2.625 1.484375 -2.625 C 2.023438 -2.625 2.375 -2.425781 2.53125 -2.03125 L 2.09375 -1.71875 L 2.046875 -1.71875 C 1.992188 -1.832031 1.921875 -1.921875 1.828125 -1.984375 C 1.742188 -2.046875 1.628906 -2.078125 1.484375 -2.078125 C 1.296875 -2.078125 1.148438 -2.007812 1.046875 -1.875 C 0.941406 -1.75 0.890625 -1.550781 0.890625 -1.28125 C 0.890625 -1.019531 0.941406 -0.820312 1.046875 -0.6875 C 1.160156 -0.5625 1.3125 -0.5 1.5 -0.5 C 1.644531 -0.5 1.765625 -0.535156 1.859375 -0.609375 C 1.953125 -0.679688 2.019531 -0.789062 2.0625 -0.9375 L 2.109375 -0.9375 L 2.578125 -0.6875 C 2.515625 -0.46875 2.394531 -0.289062 2.21875 -0.15625 C 2.039062 -0.0195312 1.800781 0.046875 1.5 0.046875 Z M 1.5 0.046875 "/></g></g><g transform="translate(46.530484, 45.488429)"><g><path d="M 2.546875 -1.140625 L 0.890625 -1.140625 C 0.910156 -0.921875 0.972656 -0.757812 1.078125 -0.65625 C 1.191406 -0.550781 1.34375 -0.5 1.53125 -0.5 C 1.675781 -0.5 1.796875 -0.523438 1.890625 -0.578125 C 1.984375 -0.640625 2.054688 -0.722656 2.109375 -0.828125 L 2.15625 -0.828125 L 2.59375 -0.5625 C 2.5 -0.375 2.367188 -0.222656 2.203125 -0.109375 C 2.035156 -0.00390625 1.8125 0.046875 1.53125 0.046875 C 1.257812 0.046875 1.023438 0 0.828125 -0.09375 C 0.640625 -0.195312 0.492188 -0.347656 0.390625 -0.546875 C 0.285156 -0.753906 0.234375 -1 0.234375 -1.28125 C 0.234375 -1.570312 0.285156 -1.816406 0.390625 -2.015625 C 0.503906 -2.222656 0.65625 -2.375 0.84375 -2.46875 C 1.03125 -2.570312 1.242188 -2.625 1.484375 -2.625 C 1.847656 -2.625 2.125 -2.523438 2.3125 -2.328125 C 2.507812 -2.140625 2.609375 -1.859375 2.609375 -1.484375 C 2.609375 -1.347656 2.601562 -1.242188 2.59375 -1.171875 Z M 1.984375 -1.5625 C 1.984375 -1.757812 1.9375 -1.898438 1.84375 -1.984375 C 1.757812 -2.078125 1.640625 -2.125 1.484375 -2.125 C 1.148438 -2.125 0.957031 -1.9375 0.90625 -1.5625 Z M 1.984375 -1.5625 "/></g></g></g></svg>