<svg xmlns="http://www.w3.org/2000/svg" xmlns:xlink="http://www.w3.org/1999/xlink" width="170" zoomAndPan="magnify" viewBox="0 0 127.5 52.499999" height="70" preserveAspectRatio="xMidYMid meet" version="1.0"><defs><g/><clipPath id="f4e9b49e6c"><path d="M 5.554688 9.292969 L 64 9.292969 L 64 42.722656 L 5.554688 42.722656 Z M 5.554688 9.292969 " clip-rule="nonzero"/></clipPath></defs><g fill="#221649" fill-opacity="1"><g transform="translate(55.851113, 35.490864)"><g><path d="M 5.15625 -7.875 C 5.21875 -8.019531 5.3125 -8.140625 5.4375 -8.234375 C 5.570312 -8.328125 5.710938 -8.375 5.859375 -8.375 C 5.992188 -8.375 6.117188 -8.328125 6.234375 -8.234375 C 6.359375 -8.148438 6.457031 -8.035156 6.53125 -7.890625 C 6.925781 -7.085938 7.3125 -6.21875 7.6875 -5.28125 C 8.070312 -4.351562 8.421875 -3.472656 8.734375 -2.640625 C 8.910156 -3.921875 9.097656 -5.207031 9.296875 -6.5 C 9.503906 -7.800781 9.738281 -9.046875 10 -10.234375 C 10.03125 -10.367188 10.078125 -10.476562 10.140625 -10.5625 C 10.203125 -10.644531 10.269531 -10.707031 10.34375 -10.75 C 10.414062 -10.800781 10.488281 -10.835938 10.5625 -10.859375 C 10.632812 -10.878906 10.695312 -10.890625 10.75 -10.890625 C 10.925781 -10.890625 11.070312 -10.835938 11.1875 -10.734375 C 11.300781 -10.640625 11.359375 -10.515625 11.359375 -10.359375 C 11.359375 -10.171875 11.328125 -9.84375 11.265625 -9.375 C 11.203125 -8.90625 11.117188 -8.359375 11.015625 -7.734375 C 10.910156 -7.109375 10.796875 -6.445312 10.671875 -5.75 C 10.546875 -5.050781 10.421875 -4.375 10.296875 -3.71875 C 10.171875 -3.070312 10.050781 -2.476562 9.9375 -1.9375 C 9.820312 -1.40625 9.726562 -1 9.65625 -0.71875 C 9.59375 -0.488281 9.5 -0.3125 9.375 -0.1875 C 9.25 -0.0703125 9.070312 -0.015625 8.84375 -0.015625 C 8.59375 -0.015625 8.378906 -0.125 8.203125 -0.34375 C 8.035156 -0.570312 7.851562 -0.921875 7.65625 -1.390625 C 7.457031 -1.867188 7.21875 -2.472656 6.9375 -3.203125 C 6.65625 -3.941406 6.296875 -4.828125 5.859375 -5.859375 C 5.398438 -4.828125 5.03125 -3.941406 4.75 -3.203125 C 4.46875 -2.460938 4.222656 -1.851562 4.015625 -1.375 C 3.816406 -0.90625 3.628906 -0.554688 3.453125 -0.328125 C 3.285156 -0.109375 3.082031 0 2.84375 0 C 2.425781 0 2.15625 -0.234375 2.03125 -0.703125 C 1.945312 -0.984375 1.847656 -1.390625 1.734375 -1.921875 C 1.617188 -2.453125 1.5 -3.039062 1.375 -3.6875 C 1.257812 -4.34375 1.140625 -5.015625 1.015625 -5.703125 C 0.890625 -6.398438 0.78125 -7.054688 0.6875 -7.671875 C 0.601562 -8.296875 0.53125 -8.84375 0.46875 -9.3125 C 0.414062 -9.78125 0.390625 -10.109375 0.390625 -10.296875 C 0.390625 -10.460938 0.441406 -10.601562 0.546875 -10.71875 C 0.660156 -10.832031 0.820312 -10.890625 1.03125 -10.890625 C 1.175781 -10.890625 1.316406 -10.84375 1.453125 -10.75 C 1.585938 -10.664062 1.6875 -10.492188 1.75 -10.234375 C 1.988281 -9.046875 2.203125 -7.800781 2.390625 -6.5 C 2.585938 -5.207031 2.796875 -3.921875 3.015625 -2.640625 C 3.335938 -3.390625 3.65625 -4.1875 3.96875 -5.03125 C 4.289062 -5.882812 4.6875 -6.832031 5.15625 -7.875 Z M 5.15625 -7.875 "/></g></g></g><g fill="#221649" fill-opacity="1"><g transform="translate(67.587683, 35.490864)"><g><path d="M 1.015625 -2.34375 C 0.992188 -2.675781 0.972656 -3.125 0.953125 -3.6875 C 0.929688 -4.257812 0.921875 -4.84375 0.921875 -5.4375 C 0.921875 -5.78125 0.921875 -6.132812 0.921875 -6.5 C 0.929688 -6.863281 0.941406 -7.238281 0.953125 -7.625 C 0.972656 -8.382812 1.019531 -8.976562 1.09375 -9.40625 C 1.175781 -9.84375 1.332031 -10.164062 1.5625 -10.375 C 1.800781 -10.59375 2.128906 -10.726562 2.546875 -10.78125 C 2.972656 -10.832031 3.535156 -10.859375 4.234375 -10.859375 C 4.242188 -10.859375 4.351562 -10.859375 4.5625 -10.859375 C 4.78125 -10.859375 5.035156 -10.851562 5.328125 -10.84375 C 5.628906 -10.84375 5.941406 -10.835938 6.265625 -10.828125 C 6.585938 -10.816406 6.859375 -10.804688 7.078125 -10.796875 C 7.304688 -10.773438 7.488281 -10.742188 7.625 -10.703125 C 7.757812 -10.671875 7.863281 -10.628906 7.9375 -10.578125 C 8.007812 -10.523438 8.054688 -10.457031 8.078125 -10.375 C 8.097656 -10.300781 8.109375 -10.21875 8.109375 -10.125 C 8.109375 -9.882812 8.039062 -9.707031 7.90625 -9.59375 C 7.78125 -9.488281 7.507812 -9.421875 7.09375 -9.390625 C 6.882812 -9.367188 6.582031 -9.351562 6.1875 -9.34375 C 5.789062 -9.34375 5.382812 -9.34375 4.96875 -9.34375 C 4.5625 -9.34375 4.191406 -9.335938 3.859375 -9.328125 C 3.535156 -9.328125 3.332031 -9.328125 3.25 -9.328125 C 2.976562 -9.316406 2.785156 -9.257812 2.671875 -9.15625 C 2.566406 -9.050781 2.515625 -8.796875 2.515625 -8.390625 C 2.515625 -8.296875 2.519531 -8.070312 2.53125 -7.71875 C 2.550781 -7.363281 2.5625 -6.867188 2.5625 -6.234375 L 3.84375 -6.234375 C 4.394531 -6.234375 4.84375 -6.222656 5.1875 -6.203125 C 5.53125 -6.191406 5.796875 -6.160156 5.984375 -6.109375 C 6.179688 -6.054688 6.3125 -5.972656 6.375 -5.859375 C 6.445312 -5.742188 6.484375 -5.59375 6.484375 -5.40625 C 6.484375 -5.3125 6.472656 -5.222656 6.453125 -5.140625 C 6.441406 -5.066406 6.398438 -5.003906 6.328125 -4.953125 C 6.265625 -4.898438 6.164062 -4.851562 6.03125 -4.8125 C 5.894531 -4.78125 5.703125 -4.753906 5.453125 -4.734375 C 5.148438 -4.710938 4.867188 -4.695312 4.609375 -4.6875 C 4.347656 -4.6875 4.085938 -4.6875 3.828125 -4.6875 L 2.53125 -4.6875 C 2.53125 -4.53125 2.53125 -4.34375 2.53125 -4.125 C 2.53125 -3.90625 2.53125 -3.679688 2.53125 -3.453125 C 2.53125 -3.234375 2.53125 -3.015625 2.53125 -2.796875 C 2.539062 -2.578125 2.550781 -2.398438 2.5625 -2.265625 C 2.570312 -2.109375 2.59375 -1.972656 2.625 -1.859375 C 2.664062 -1.742188 2.734375 -1.648438 2.828125 -1.578125 C 2.929688 -1.503906 3.078125 -1.453125 3.265625 -1.421875 C 3.453125 -1.390625 3.707031 -1.375 4.03125 -1.375 L 7.359375 -1.375 C 7.710938 -1.375 7.9375 -1.304688 8.03125 -1.171875 C 8.125 -1.035156 8.171875 -0.859375 8.171875 -0.640625 C 8.171875 -0.453125 8.128906 -0.304688 8.046875 -0.203125 C 7.960938 -0.109375 7.765625 -0.0390625 7.453125 0 C 7.140625 0.0507812 6.671875 0.0820312 6.046875 0.09375 C 5.421875 0.101562 4.566406 0.109375 3.484375 0.109375 C 3.015625 0.109375 2.628906 0.0664062 2.328125 -0.015625 C 2.035156 -0.0976562 1.796875 -0.234375 1.609375 -0.421875 C 1.421875 -0.617188 1.28125 -0.875 1.1875 -1.1875 C 1.101562 -1.507812 1.046875 -1.894531 1.015625 -2.34375 Z M 1.015625 -2.34375 "/></g></g></g><g fill="#221649" fill-opacity="1"><g transform="translate(76.220243, 35.490864)"><g><path d="M 3.75 0 C 3.175781 0 2.710938 -0.046875 2.359375 -0.140625 C 2.015625 -0.234375 1.742188 -0.363281 1.546875 -0.53125 C 1.359375 -0.695312 1.226562 -0.90625 1.15625 -1.15625 C 1.09375 -1.40625 1.046875 -1.6875 1.015625 -2 C 0.984375 -2.351562 0.957031 -2.828125 0.9375 -3.421875 C 0.925781 -4.015625 0.921875 -4.628906 0.921875 -5.265625 C 0.921875 -5.578125 0.921875 -5.90625 0.921875 -6.25 C 0.929688 -6.59375 0.9375 -6.929688 0.9375 -7.265625 C 0.945312 -7.597656 0.957031 -7.910156 0.96875 -8.203125 C 0.976562 -8.492188 0.992188 -8.742188 1.015625 -8.953125 C 1.046875 -9.265625 1.097656 -9.550781 1.171875 -9.8125 C 1.242188 -10.070312 1.378906 -10.289062 1.578125 -10.46875 C 1.785156 -10.65625 2.070312 -10.796875 2.4375 -10.890625 C 2.800781 -10.992188 3.285156 -11.046875 3.890625 -11.046875 C 5.273438 -11.046875 6.304688 -10.789062 6.984375 -10.28125 C 7.671875 -9.769531 8.015625 -9.046875 8.015625 -8.109375 C 8.015625 -7.628906 7.910156 -7.179688 7.703125 -6.765625 C 7.492188 -6.359375 7.128906 -6.050781 6.609375 -5.84375 C 6.898438 -5.789062 7.160156 -5.679688 7.390625 -5.515625 C 7.628906 -5.347656 7.832031 -5.148438 8 -4.921875 C 8.175781 -4.691406 8.304688 -4.429688 8.390625 -4.140625 C 8.484375 -3.859375 8.53125 -3.578125 8.53125 -3.296875 C 8.53125 -2.921875 8.453125 -2.539062 8.296875 -2.15625 C 8.140625 -1.769531 7.875 -1.414062 7.5 -1.09375 C 7.132812 -0.78125 6.644531 -0.519531 6.03125 -0.3125 C 5.414062 -0.101562 4.65625 0 3.75 0 Z M 6.984375 -3.34375 C 6.984375 -3.707031 6.894531 -4.003906 6.71875 -4.234375 C 6.550781 -4.460938 6.332031 -4.632812 6.0625 -4.75 C 5.800781 -4.863281 5.503906 -4.941406 5.171875 -4.984375 C 4.847656 -5.023438 4.519531 -5.046875 4.1875 -5.046875 C 3.925781 -5.046875 3.65625 -5.046875 3.375 -5.046875 C 3.101562 -5.046875 2.847656 -5.039062 2.609375 -5.03125 C 2.597656 -4.820312 2.585938 -4.601562 2.578125 -4.375 C 2.566406 -4.144531 2.554688 -3.929688 2.546875 -3.734375 C 2.546875 -3.535156 2.546875 -3.359375 2.546875 -3.203125 C 2.546875 -3.054688 2.546875 -2.953125 2.546875 -2.890625 C 2.546875 -2.609375 2.566406 -2.375 2.609375 -2.1875 C 2.648438 -2.007812 2.726562 -1.863281 2.84375 -1.75 C 2.957031 -1.632812 3.117188 -1.550781 3.328125 -1.5 C 3.535156 -1.457031 3.804688 -1.4375 4.140625 -1.4375 C 5.046875 -1.4375 5.742188 -1.59375 6.234375 -1.90625 C 6.734375 -2.226562 6.984375 -2.707031 6.984375 -3.34375 Z M 4.125 -9.578125 C 3.78125 -9.578125 3.503906 -9.546875 3.296875 -9.484375 C 3.085938 -9.429688 2.925781 -9.359375 2.8125 -9.265625 C 2.707031 -9.171875 2.632812 -9.054688 2.59375 -8.921875 C 2.5625 -8.796875 2.546875 -8.65625 2.546875 -8.5 L 2.546875 -6.328125 C 2.691406 -6.328125 2.84375 -6.328125 3 -6.328125 C 3.164062 -6.328125 3.320312 -6.328125 3.46875 -6.328125 C 3.832031 -6.328125 4.191406 -6.347656 4.546875 -6.390625 C 4.898438 -6.441406 5.222656 -6.53125 5.515625 -6.65625 C 5.804688 -6.78125 6.035156 -6.953125 6.203125 -7.171875 C 6.378906 -7.390625 6.46875 -7.664062 6.46875 -8 C 6.46875 -8.46875 6.28125 -8.847656 5.90625 -9.140625 C 5.53125 -9.429688 4.9375 -9.578125 4.125 -9.578125 Z M 4.125 -9.578125 "/></g></g></g><g fill="#221649" fill-opacity="1"><g transform="translate(85.207987, 35.490864)"><g><path d="M 1.15625 -0.953125 C 1.132812 -1.328125 1.117188 -1.710938 1.109375 -2.109375 C 1.109375 -2.515625 1.101562 -2.945312 1.09375 -3.40625 C 1.082031 -3.875 1.078125 -4.378906 1.078125 -4.921875 C 1.078125 -5.460938 1.078125 -6.066406 1.078125 -6.734375 C 1.078125 -7.460938 1.082031 -8.085938 1.09375 -8.609375 C 1.101562 -9.128906 1.132812 -9.554688 1.1875 -9.890625 C 1.238281 -10.222656 1.316406 -10.460938 1.421875 -10.609375 C 1.535156 -10.765625 1.6875 -10.84375 1.875 -10.84375 C 1.96875 -10.84375 2.050781 -10.832031 2.125 -10.8125 C 2.207031 -10.789062 2.28125 -10.742188 2.34375 -10.671875 C 2.40625 -10.609375 2.457031 -10.515625 2.5 -10.390625 C 2.550781 -10.265625 2.582031 -10.097656 2.59375 -9.890625 C 2.613281 -9.515625 2.628906 -9.179688 2.640625 -8.890625 C 2.648438 -8.609375 2.660156 -8.328125 2.671875 -8.046875 C 2.679688 -7.765625 2.6875 -7.46875 2.6875 -7.15625 C 2.6875 -6.851562 2.6875 -6.515625 2.6875 -6.140625 C 2.6875 -5.671875 2.6875 -5.222656 2.6875 -4.796875 C 2.6875 -4.378906 2.679688 -3.960938 2.671875 -3.546875 C 2.660156 -3.140625 2.648438 -2.722656 2.640625 -2.296875 C 2.628906 -1.878906 2.613281 -1.4375 2.59375 -0.96875 C 2.582031 -0.726562 2.554688 -0.539062 2.515625 -0.40625 C 2.472656 -0.269531 2.421875 -0.164062 2.359375 -0.09375 C 2.296875 -0.0195312 2.222656 0.0195312 2.140625 0.03125 C 2.066406 0.0507812 1.976562 0.0625 1.875 0.0625 C 1.6875 0.0625 1.523438 0 1.390625 -0.125 C 1.253906 -0.257812 1.175781 -0.535156 1.15625 -0.953125 Z M 1.15625 -0.953125 "/></g></g></g><g fill="#221649" fill-opacity="1"><g transform="translate(88.976043, 35.490864)"><g><path d="M 6.9375 -9.390625 C 6.644531 -9.367188 6.335938 -9.351562 6.015625 -9.34375 C 5.691406 -9.332031 5.332031 -9.320312 4.9375 -9.3125 C 4.945312 -9.039062 4.957031 -8.78125 4.96875 -8.53125 C 4.976562 -8.289062 4.988281 -8.046875 5 -7.796875 C 5.007812 -7.554688 5.015625 -7.300781 5.015625 -7.03125 C 5.023438 -6.757812 5.03125 -6.460938 5.03125 -6.140625 C 5.03125 -5.671875 5.03125 -5.222656 5.03125 -4.796875 C 5.03125 -4.367188 5.023438 -3.941406 5.015625 -3.515625 C 5.003906 -3.085938 4.992188 -2.65625 4.984375 -2.21875 C 4.972656 -1.789062 4.957031 -1.34375 4.9375 -0.875 C 4.925781 -0.632812 4.90625 -0.445312 4.875 -0.3125 C 4.84375 -0.175781 4.796875 -0.0703125 4.734375 0 C 4.671875 0.0703125 4.597656 0.113281 4.515625 0.125 C 4.429688 0.144531 4.335938 0.15625 4.234375 0.15625 C 4.046875 0.15625 3.882812 0.09375 3.75 -0.03125 C 3.625 -0.164062 3.550781 -0.441406 3.53125 -0.859375 C 3.519531 -1.234375 3.507812 -1.625 3.5 -2.03125 C 3.5 -2.445312 3.492188 -2.890625 3.484375 -3.359375 C 3.472656 -3.835938 3.46875 -4.351562 3.46875 -4.90625 C 3.46875 -5.457031 3.46875 -6.066406 3.46875 -6.734375 C 3.46875 -7.304688 3.46875 -7.800781 3.46875 -8.21875 C 3.476562 -8.644531 3.492188 -9.007812 3.515625 -9.3125 L 2.875 -9.3125 C 2.4375 -9.3125 2.066406 -9.316406 1.765625 -9.328125 C 1.460938 -9.335938 1.210938 -9.363281 1.015625 -9.40625 C 0.816406 -9.457031 0.675781 -9.535156 0.59375 -9.640625 C 0.507812 -9.742188 0.46875 -9.890625 0.46875 -10.078125 C 0.46875 -10.171875 0.476562 -10.253906 0.5 -10.328125 C 0.519531 -10.410156 0.5625 -10.484375 0.625 -10.546875 C 0.695312 -10.609375 0.796875 -10.660156 0.921875 -10.703125 C 1.054688 -10.742188 1.226562 -10.773438 1.4375 -10.796875 C 1.632812 -10.804688 1.804688 -10.816406 1.953125 -10.828125 C 2.109375 -10.835938 2.265625 -10.847656 2.421875 -10.859375 C 2.578125 -10.867188 2.738281 -10.875 2.90625 -10.875 C 3.070312 -10.875 3.265625 -10.875 3.484375 -10.875 C 4.085938 -10.875 4.660156 -10.867188 5.203125 -10.859375 C 5.742188 -10.847656 6.316406 -10.828125 6.921875 -10.796875 C 7.171875 -10.773438 7.363281 -10.742188 7.5 -10.703125 C 7.632812 -10.671875 7.734375 -10.625 7.796875 -10.5625 C 7.867188 -10.507812 7.910156 -10.441406 7.921875 -10.359375 C 7.941406 -10.273438 7.953125 -10.179688 7.953125 -10.078125 C 7.953125 -9.890625 7.890625 -9.734375 7.765625 -9.609375 C 7.640625 -9.484375 7.363281 -9.410156 6.9375 -9.390625 Z M 6.9375 -9.390625 "/></g></g></g><g fill="#221649" fill-opacity="1"><g transform="translate(97.3924, 35.490864)"><g><path d="M 3.71875 -0.953125 C 3.695312 -1.523438 3.675781 -2.128906 3.65625 -2.765625 C 3.644531 -3.410156 3.640625 -4.15625 3.640625 -5 L 0.578125 -9.40625 C 0.492188 -9.519531 0.425781 -9.640625 0.375 -9.765625 C 0.332031 -9.890625 0.3125 -10.007812 0.3125 -10.125 C 0.3125 -10.320312 0.363281 -10.484375 0.46875 -10.609375 C 0.582031 -10.734375 0.769531 -10.796875 1.03125 -10.796875 C 1.25 -10.796875 1.441406 -10.738281 1.609375 -10.625 C 1.785156 -10.507812 1.945312 -10.335938 2.09375 -10.109375 L 4.390625 -6.4375 L 6.6875 -10.109375 C 6.832031 -10.335938 6.988281 -10.507812 7.15625 -10.625 C 7.332031 -10.738281 7.523438 -10.796875 7.734375 -10.796875 C 8.003906 -10.796875 8.191406 -10.734375 8.296875 -10.609375 C 8.410156 -10.484375 8.46875 -10.320312 8.46875 -10.125 C 8.46875 -10.007812 8.441406 -9.890625 8.390625 -9.765625 C 8.347656 -9.640625 8.285156 -9.519531 8.203125 -9.40625 L 5.1875 -5.09375 C 5.1875 -4.394531 5.175781 -3.722656 5.15625 -3.078125 C 5.144531 -2.429688 5.125 -1.726562 5.09375 -0.96875 C 5.082031 -0.726562 5.054688 -0.539062 5.015625 -0.40625 C 4.984375 -0.269531 4.9375 -0.164062 4.875 -0.09375 C 4.820312 -0.0195312 4.753906 0.0195312 4.671875 0.03125 C 4.597656 0.0507812 4.507812 0.0625 4.40625 0.0625 C 4.21875 0.0625 4.0625 0 3.9375 -0.125 C 3.8125 -0.257812 3.738281 -0.535156 3.71875 -0.953125 Z M 3.71875 -0.953125 "/></g></g></g><g fill="#221649" fill-opacity="1"><g transform="translate(106.163942, 35.490864)"><g><path d="M 7.40625 -0.78125 C 7.300781 -1.03125 7.1875 -1.316406 7.0625 -1.640625 C 6.945312 -1.960938 6.820312 -2.304688 6.6875 -2.671875 C 6.382812 -2.660156 6.0625 -2.648438 5.71875 -2.640625 C 5.375 -2.640625 5.03125 -2.640625 4.6875 -2.640625 C 4.238281 -2.640625 3.832031 -2.640625 3.46875 -2.640625 C 3.113281 -2.640625 2.785156 -2.644531 2.484375 -2.65625 C 2.359375 -2.289062 2.238281 -1.945312 2.125 -1.625 C 2.019531 -1.3125 1.914062 -1.03125 1.8125 -0.78125 C 1.601562 -0.257812 1.300781 0 0.90625 0 C 0.769531 0 0.632812 -0.046875 0.5 -0.140625 C 0.375 -0.234375 0.3125 -0.367188 0.3125 -0.546875 C 0.3125 -0.710938 0.34375 -0.9375 0.40625 -1.21875 C 0.46875 -1.507812 0.546875 -1.816406 0.640625 -2.140625 C 0.734375 -2.460938 0.835938 -2.796875 0.953125 -3.140625 C 1.066406 -3.484375 1.175781 -3.804688 1.28125 -4.109375 C 1.382812 -4.441406 1.53125 -4.863281 1.71875 -5.375 C 1.914062 -5.882812 2.117188 -6.414062 2.328125 -6.96875 C 2.546875 -7.519531 2.765625 -8.066406 2.984375 -8.609375 C 3.203125 -9.148438 3.394531 -9.625 3.5625 -10.03125 C 3.601562 -10.132812 3.65625 -10.25 3.71875 -10.375 C 3.78125 -10.5 3.851562 -10.617188 3.9375 -10.734375 C 4.03125 -10.847656 4.128906 -10.945312 4.234375 -11.03125 C 4.347656 -11.113281 4.472656 -11.15625 4.609375 -11.15625 C 4.742188 -11.15625 4.863281 -11.109375 4.96875 -11.015625 C 5.082031 -10.929688 5.179688 -10.828125 5.265625 -10.703125 C 5.359375 -10.585938 5.4375 -10.460938 5.5 -10.328125 C 5.570312 -10.191406 5.628906 -10.070312 5.671875 -9.96875 C 5.835938 -9.550781 6.023438 -9.070312 6.234375 -8.53125 C 6.441406 -8 6.648438 -7.460938 6.859375 -6.921875 C 7.078125 -6.378906 7.273438 -5.859375 7.453125 -5.359375 C 7.640625 -4.867188 7.789062 -4.453125 7.90625 -4.109375 C 8 -3.804688 8.101562 -3.484375 8.21875 -3.140625 C 8.34375 -2.804688 8.457031 -2.472656 8.5625 -2.140625 C 8.664062 -1.816406 8.75 -1.507812 8.8125 -1.21875 C 8.882812 -0.9375 8.921875 -0.710938 8.921875 -0.546875 C 8.921875 -0.367188 8.851562 -0.234375 8.71875 -0.140625 C 8.59375 -0.046875 8.457031 0 8.3125 0 C 8.125 0 7.953125 -0.0625 7.796875 -0.1875 C 7.648438 -0.320312 7.519531 -0.519531 7.40625 -0.78125 Z M 4.671875 -4.1875 C 4.910156 -4.1875 5.15625 -4.179688 5.40625 -4.171875 C 5.65625 -4.171875 5.90625 -4.164062 6.15625 -4.15625 C 6.03125 -4.519531 5.90625 -4.878906 5.78125 -5.234375 C 5.65625 -5.597656 5.535156 -5.941406 5.421875 -6.265625 C 5.316406 -6.597656 5.21875 -6.90625 5.125 -7.1875 C 5.039062 -7.476562 4.972656 -7.726562 4.921875 -7.9375 C 4.878906 -8.070312 4.832031 -8.179688 4.78125 -8.265625 C 4.726562 -8.347656 4.660156 -8.390625 4.578125 -8.390625 C 4.492188 -8.390625 4.425781 -8.34375 4.375 -8.25 C 4.320312 -8.164062 4.273438 -8.054688 4.234375 -7.921875 C 4.109375 -7.503906 3.9375 -6.957031 3.71875 -6.28125 C 3.5 -5.601562 3.265625 -4.894531 3.015625 -4.15625 C 3.296875 -4.164062 3.570312 -4.171875 3.84375 -4.171875 C 4.125 -4.179688 4.398438 -4.1875 4.671875 -4.1875 Z M 4.671875 -4.1875 "/></g></g></g><g fill="#221649" fill-opacity="1"><g transform="translate(49.829746, 41.184817)"><g><path d="M 2.125 -3.25 C 2.15625 -3.3125 2.195312 -3.359375 2.25 -3.390625 C 2.300781 -3.429688 2.359375 -3.453125 2.421875 -3.453125 C 2.472656 -3.453125 2.523438 -3.429688 2.578125 -3.390625 C 2.628906 -3.359375 2.671875 -3.3125 2.703125 -3.25 C 2.859375 -2.925781 3.015625 -2.570312 3.171875 -2.1875 C 3.328125 -1.800781 3.472656 -1.4375 3.609375 -1.09375 C 3.671875 -1.613281 3.742188 -2.140625 3.828125 -2.671875 C 3.921875 -3.210938 4.019531 -3.726562 4.125 -4.21875 C 4.132812 -4.269531 4.148438 -4.3125 4.171875 -4.34375 C 4.203125 -4.382812 4.234375 -4.414062 4.265625 -4.4375 C 4.296875 -4.457031 4.328125 -4.472656 4.359375 -4.484375 C 4.390625 -4.492188 4.414062 -4.5 4.4375 -4.5 C 4.507812 -4.5 4.566406 -4.476562 4.609375 -4.4375 C 4.660156 -4.394531 4.6875 -4.335938 4.6875 -4.265625 C 4.6875 -4.191406 4.671875 -4.054688 4.640625 -3.859375 C 4.617188 -3.671875 4.585938 -3.445312 4.546875 -3.1875 C 4.503906 -2.9375 4.457031 -2.664062 4.40625 -2.375 C 4.351562 -2.082031 4.300781 -1.800781 4.25 -1.53125 C 4.195312 -1.269531 4.144531 -1.023438 4.09375 -0.796875 C 4.050781 -0.578125 4.015625 -0.410156 3.984375 -0.296875 C 3.960938 -0.203125 3.925781 -0.128906 3.875 -0.078125 C 3.820312 -0.0234375 3.742188 0 3.640625 0 C 3.546875 0 3.460938 -0.046875 3.390625 -0.140625 C 3.316406 -0.234375 3.238281 -0.375 3.15625 -0.5625 C 3.070312 -0.757812 2.972656 -1.007812 2.859375 -1.3125 C 2.742188 -1.625 2.597656 -1.992188 2.421875 -2.421875 C 2.234375 -1.992188 2.078125 -1.625 1.953125 -1.3125 C 1.835938 -1.007812 1.738281 -0.757812 1.65625 -0.5625 C 1.570312 -0.375 1.492188 -0.234375 1.421875 -0.140625 C 1.347656 -0.046875 1.265625 0 1.171875 0 C 1.003906 0 0.890625 -0.0976562 0.828125 -0.296875 C 0.796875 -0.410156 0.753906 -0.578125 0.703125 -0.796875 C 0.660156 -1.015625 0.613281 -1.253906 0.5625 -1.515625 C 0.519531 -1.785156 0.472656 -2.0625 0.421875 -2.34375 C 0.367188 -2.632812 0.320312 -2.90625 0.28125 -3.15625 C 0.25 -3.414062 0.21875 -3.640625 0.1875 -3.828125 C 0.164062 -4.023438 0.15625 -4.164062 0.15625 -4.25 C 0.15625 -4.320312 0.175781 -4.378906 0.21875 -4.421875 C 0.269531 -4.472656 0.335938 -4.5 0.421875 -4.5 C 0.484375 -4.5 0.539062 -4.476562 0.59375 -4.4375 C 0.65625 -4.40625 0.695312 -4.332031 0.71875 -4.21875 C 0.820312 -3.726562 0.910156 -3.210938 0.984375 -2.671875 C 1.066406 -2.140625 1.15625 -1.613281 1.25 -1.09375 C 1.375 -1.40625 1.503906 -1.734375 1.640625 -2.078125 C 1.773438 -2.421875 1.9375 -2.8125 2.125 -3.25 Z M 2.125 -3.25 "/></g></g></g><g fill="#221649" fill-opacity="1"><g transform="translate(57.139913, 41.184817)"><g><path d="M 0.421875 -0.96875 C 0.410156 -1.101562 0.398438 -1.285156 0.390625 -1.515625 C 0.378906 -1.753906 0.375 -2 0.375 -2.25 C 0.375 -2.382812 0.375 -2.523438 0.375 -2.671875 C 0.382812 -2.828125 0.390625 -2.984375 0.390625 -3.140625 C 0.398438 -3.453125 0.421875 -3.695312 0.453125 -3.875 C 0.484375 -4.0625 0.546875 -4.195312 0.640625 -4.28125 C 0.742188 -4.375 0.878906 -4.429688 1.046875 -4.453125 C 1.222656 -4.472656 1.457031 -4.484375 1.75 -4.484375 C 1.75 -4.484375 1.789062 -4.484375 1.875 -4.484375 C 1.96875 -4.484375 2.078125 -4.476562 2.203125 -4.46875 C 2.328125 -4.46875 2.453125 -4.46875 2.578125 -4.46875 C 2.710938 -4.46875 2.828125 -4.460938 2.921875 -4.453125 C 3.015625 -4.441406 3.085938 -4.429688 3.140625 -4.421875 C 3.203125 -4.410156 3.25 -4.390625 3.28125 -4.359375 C 3.3125 -4.335938 3.328125 -4.3125 3.328125 -4.28125 C 3.335938 -4.25 3.34375 -4.210938 3.34375 -4.171875 C 3.34375 -4.078125 3.316406 -4.003906 3.265625 -3.953125 C 3.210938 -3.910156 3.097656 -3.882812 2.921875 -3.875 C 2.835938 -3.863281 2.710938 -3.859375 2.546875 -3.859375 C 2.390625 -3.859375 2.222656 -3.859375 2.046875 -3.859375 C 1.878906 -3.859375 1.726562 -3.851562 1.59375 -3.84375 C 1.457031 -3.84375 1.375 -3.84375 1.34375 -3.84375 C 1.226562 -3.84375 1.148438 -3.816406 1.109375 -3.765625 C 1.066406 -3.722656 1.046875 -3.625 1.046875 -3.46875 C 1.046875 -3.425781 1.046875 -3.332031 1.046875 -3.1875 C 1.054688 -3.039062 1.0625 -2.832031 1.0625 -2.5625 L 1.59375 -2.5625 C 1.8125 -2.5625 1.992188 -2.554688 2.140625 -2.546875 C 2.285156 -2.546875 2.394531 -2.535156 2.46875 -2.515625 C 2.550781 -2.492188 2.601562 -2.457031 2.625 -2.40625 C 2.65625 -2.363281 2.671875 -2.304688 2.671875 -2.234375 C 2.671875 -2.191406 2.664062 -2.15625 2.65625 -2.125 C 2.65625 -2.09375 2.640625 -2.066406 2.609375 -2.046875 C 2.578125 -2.023438 2.535156 -2.003906 2.484375 -1.984375 C 2.429688 -1.972656 2.351562 -1.960938 2.25 -1.953125 C 2.125 -1.941406 2.003906 -1.9375 1.890625 -1.9375 C 1.785156 -1.9375 1.679688 -1.9375 1.578125 -1.9375 L 1.046875 -1.9375 C 1.046875 -1.875 1.046875 -1.796875 1.046875 -1.703125 C 1.046875 -1.609375 1.046875 -1.515625 1.046875 -1.421875 C 1.046875 -1.328125 1.046875 -1.234375 1.046875 -1.140625 C 1.046875 -1.054688 1.050781 -0.988281 1.0625 -0.9375 C 1.0625 -0.863281 1.066406 -0.800781 1.078125 -0.75 C 1.097656 -0.707031 1.128906 -0.671875 1.171875 -0.640625 C 1.210938 -0.617188 1.269531 -0.597656 1.34375 -0.578125 C 1.425781 -0.566406 1.53125 -0.5625 1.65625 -0.5625 L 3.03125 -0.5625 C 3.175781 -0.5625 3.269531 -0.535156 3.3125 -0.484375 C 3.351562 -0.429688 3.375 -0.359375 3.375 -0.265625 C 3.375 -0.179688 3.351562 -0.117188 3.3125 -0.078125 C 3.28125 -0.046875 3.195312 -0.0195312 3.0625 0 C 2.9375 0.0195312 2.742188 0.03125 2.484375 0.03125 C 2.234375 0.0390625 1.882812 0.046875 1.4375 0.046875 C 1.238281 0.046875 1.078125 0.03125 0.953125 0 C 0.835938 -0.0390625 0.738281 -0.0976562 0.65625 -0.171875 C 0.582031 -0.253906 0.523438 -0.359375 0.484375 -0.484375 C 0.453125 -0.617188 0.429688 -0.78125 0.421875 -0.96875 Z M 0.421875 -0.96875 "/></g></g></g><g fill="#221649" fill-opacity="1"><g transform="translate(63.169045, 41.184817)"><g><path d="M 1.546875 0 C 1.304688 0 1.113281 -0.015625 0.96875 -0.046875 C 0.832031 -0.0859375 0.722656 -0.144531 0.640625 -0.21875 C 0.554688 -0.289062 0.5 -0.375 0.46875 -0.46875 C 0.445312 -0.570312 0.429688 -0.691406 0.421875 -0.828125 C 0.410156 -0.972656 0.398438 -1.164062 0.390625 -1.40625 C 0.378906 -1.65625 0.375 -1.910156 0.375 -2.171875 C 0.375 -2.296875 0.375 -2.429688 0.375 -2.578125 C 0.382812 -2.722656 0.390625 -2.863281 0.390625 -3 C 0.390625 -3.132812 0.390625 -3.257812 0.390625 -3.375 C 0.398438 -3.5 0.410156 -3.601562 0.421875 -3.6875 C 0.429688 -3.820312 0.453125 -3.941406 0.484375 -4.046875 C 0.515625 -4.148438 0.570312 -4.238281 0.65625 -4.3125 C 0.738281 -4.394531 0.851562 -4.457031 1 -4.5 C 1.15625 -4.539062 1.359375 -4.5625 1.609375 -4.5625 C 2.171875 -4.5625 2.59375 -4.453125 2.875 -4.234375 C 3.164062 -4.023438 3.3125 -3.726562 3.3125 -3.34375 C 3.3125 -3.144531 3.265625 -2.957031 3.171875 -2.78125 C 3.085938 -2.613281 2.941406 -2.488281 2.734375 -2.40625 C 2.847656 -2.382812 2.953125 -2.335938 3.046875 -2.265625 C 3.148438 -2.203125 3.234375 -2.125 3.296875 -2.03125 C 3.367188 -1.9375 3.421875 -1.828125 3.453125 -1.703125 C 3.492188 -1.585938 3.515625 -1.472656 3.515625 -1.359375 C 3.515625 -1.203125 3.484375 -1.046875 3.421875 -0.890625 C 3.359375 -0.734375 3.25 -0.585938 3.09375 -0.453125 C 2.945312 -0.316406 2.742188 -0.207031 2.484375 -0.125 C 2.234375 -0.0390625 1.921875 0 1.546875 0 Z M 2.875 -1.375 C 2.875 -1.53125 2.835938 -1.65625 2.765625 -1.75 C 2.703125 -1.84375 2.613281 -1.910156 2.5 -1.953125 C 2.394531 -2.003906 2.273438 -2.035156 2.140625 -2.046875 C 2.003906 -2.066406 1.867188 -2.078125 1.734375 -2.078125 C 1.617188 -2.078125 1.503906 -2.078125 1.390625 -2.078125 C 1.273438 -2.078125 1.171875 -2.078125 1.078125 -2.078125 C 1.078125 -1.984375 1.070312 -1.890625 1.0625 -1.796875 C 1.0625 -1.703125 1.054688 -1.613281 1.046875 -1.53125 C 1.046875 -1.457031 1.046875 -1.390625 1.046875 -1.328125 C 1.046875 -1.265625 1.046875 -1.21875 1.046875 -1.1875 C 1.046875 -1.070312 1.054688 -0.976562 1.078125 -0.90625 C 1.097656 -0.832031 1.128906 -0.769531 1.171875 -0.71875 C 1.222656 -0.675781 1.289062 -0.644531 1.375 -0.625 C 1.457031 -0.601562 1.566406 -0.59375 1.703125 -0.59375 C 2.078125 -0.59375 2.363281 -0.65625 2.5625 -0.78125 C 2.769531 -0.914062 2.875 -1.113281 2.875 -1.375 Z M 1.703125 -3.953125 C 1.554688 -3.953125 1.441406 -3.9375 1.359375 -3.90625 C 1.273438 -3.882812 1.207031 -3.851562 1.15625 -3.8125 C 1.113281 -3.78125 1.082031 -3.738281 1.0625 -3.6875 C 1.050781 -3.632812 1.046875 -3.570312 1.046875 -3.5 L 1.046875 -2.609375 C 1.109375 -2.609375 1.171875 -2.609375 1.234375 -2.609375 C 1.304688 -2.609375 1.367188 -2.609375 1.421875 -2.609375 C 1.578125 -2.609375 1.726562 -2.617188 1.875 -2.640625 C 2.019531 -2.660156 2.148438 -2.695312 2.265625 -2.75 C 2.390625 -2.800781 2.488281 -2.867188 2.5625 -2.953125 C 2.632812 -3.046875 2.671875 -3.160156 2.671875 -3.296875 C 2.671875 -3.492188 2.59375 -3.648438 2.4375 -3.765625 C 2.28125 -3.890625 2.035156 -3.953125 1.703125 -3.953125 Z M 1.703125 -3.953125 "/></g></g></g><g fill="#221649" fill-opacity="1"><g transform="translate(69.344762, 41.184817)"><g/></g></g><g fill="#221649" fill-opacity="1"><g transform="translate(73.143231, 41.184817)"><g><path d="M 1.9375 -4.5 C 2.050781 -4.5 2.1875 -4.488281 2.34375 -4.46875 C 2.5 -4.445312 2.644531 -4.410156 2.78125 -4.359375 C 2.914062 -4.316406 3.03125 -4.253906 3.125 -4.171875 C 3.21875 -4.097656 3.265625 -4.003906 3.265625 -3.890625 C 3.265625 -3.816406 3.242188 -3.753906 3.203125 -3.703125 C 3.171875 -3.660156 3.113281 -3.640625 3.03125 -3.640625 C 2.96875 -3.640625 2.898438 -3.648438 2.828125 -3.671875 C 2.765625 -3.703125 2.691406 -3.734375 2.609375 -3.765625 C 2.523438 -3.796875 2.425781 -3.820312 2.3125 -3.84375 C 2.207031 -3.863281 2.082031 -3.875 1.9375 -3.875 C 1.664062 -3.875 1.460938 -3.820312 1.328125 -3.71875 C 1.191406 -3.625 1.125 -3.492188 1.125 -3.328125 C 1.125 -3.203125 1.148438 -3.097656 1.203125 -3.015625 C 1.265625 -2.941406 1.34375 -2.875 1.4375 -2.8125 C 1.539062 -2.757812 1.65625 -2.710938 1.78125 -2.671875 C 1.90625 -2.628906 2.035156 -2.59375 2.171875 -2.5625 C 2.316406 -2.519531 2.460938 -2.472656 2.609375 -2.421875 C 2.765625 -2.367188 2.898438 -2.296875 3.015625 -2.203125 C 3.128906 -2.117188 3.21875 -2.003906 3.28125 -1.859375 C 3.351562 -1.722656 3.390625 -1.550781 3.390625 -1.34375 C 3.390625 -1.132812 3.347656 -0.941406 3.265625 -0.765625 C 3.191406 -0.597656 3.082031 -0.453125 2.9375 -0.328125 C 2.800781 -0.203125 2.632812 -0.109375 2.4375 -0.046875 C 2.238281 0.015625 2.023438 0.046875 1.796875 0.046875 C 1.671875 0.046875 1.519531 0.0351562 1.34375 0.015625 C 1.175781 -0.00390625 1.015625 -0.0390625 0.859375 -0.09375 C 0.710938 -0.15625 0.582031 -0.234375 0.46875 -0.328125 C 0.363281 -0.429688 0.3125 -0.550781 0.3125 -0.6875 C 0.3125 -0.769531 0.332031 -0.835938 0.375 -0.890625 C 0.425781 -0.941406 0.5 -0.96875 0.59375 -0.96875 C 0.65625 -0.96875 0.707031 -0.953125 0.75 -0.921875 C 0.800781 -0.898438 0.847656 -0.867188 0.890625 -0.828125 C 1.015625 -0.722656 1.15625 -0.648438 1.3125 -0.609375 C 1.476562 -0.566406 1.644531 -0.546875 1.8125 -0.546875 C 1.914062 -0.546875 2.019531 -0.550781 2.125 -0.5625 C 2.226562 -0.582031 2.328125 -0.613281 2.421875 -0.65625 C 2.515625 -0.707031 2.585938 -0.773438 2.640625 -0.859375 C 2.703125 -0.953125 2.734375 -1.070312 2.734375 -1.21875 C 2.734375 -1.351562 2.707031 -1.460938 2.65625 -1.546875 C 2.601562 -1.640625 2.53125 -1.71875 2.4375 -1.78125 C 2.351562 -1.84375 2.25 -1.890625 2.125 -1.921875 C 2 -1.960938 1.867188 -2.003906 1.734375 -2.046875 C 1.578125 -2.085938 1.421875 -2.128906 1.265625 -2.171875 C 1.117188 -2.222656 0.984375 -2.289062 0.859375 -2.375 C 0.742188 -2.46875 0.644531 -2.582031 0.5625 -2.71875 C 0.488281 -2.851562 0.453125 -3.023438 0.453125 -3.234375 C 0.453125 -3.441406 0.488281 -3.625 0.5625 -3.78125 C 0.644531 -3.9375 0.75 -4.066406 0.875 -4.171875 C 1.007812 -4.273438 1.164062 -4.351562 1.34375 -4.40625 C 1.53125 -4.46875 1.726562 -4.5 1.9375 -4.5 Z M 1.9375 -4.5 "/></g></g></g><g fill="#221649" fill-opacity="1"><g transform="translate(79.318949, 41.184817)"><g><path d="M 0.421875 -0.96875 C 0.410156 -1.101562 0.398438 -1.285156 0.390625 -1.515625 C 0.378906 -1.753906 0.375 -2 0.375 -2.25 C 0.375 -2.382812 0.375 -2.523438 0.375 -2.671875 C 0.382812 -2.828125 0.390625 -2.984375 0.390625 -3.140625 C 0.398438 -3.453125 0.421875 -3.695312 0.453125 -3.875 C 0.484375 -4.0625 0.546875 -4.195312 0.640625 -4.28125 C 0.742188 -4.375 0.878906 -4.429688 1.046875 -4.453125 C 1.222656 -4.472656 1.457031 -4.484375 1.75 -4.484375 C 1.75 -4.484375 1.789062 -4.484375 1.875 -4.484375 C 1.96875 -4.484375 2.078125 -4.476562 2.203125 -4.46875 C 2.328125 -4.46875 2.453125 -4.46875 2.578125 -4.46875 C 2.710938 -4.46875 2.828125 -4.460938 2.921875 -4.453125 C 3.015625 -4.441406 3.085938 -4.429688 3.140625 -4.421875 C 3.203125 -4.410156 3.25 -4.390625 3.28125 -4.359375 C 3.3125 -4.335938 3.328125 -4.3125 3.328125 -4.28125 C 3.335938 -4.25 3.34375 -4.210938 3.34375 -4.171875 C 3.34375 -4.078125 3.316406 -4.003906 3.265625 -3.953125 C 3.210938 -3.910156 3.097656 -3.882812 2.921875 -3.875 C 2.835938 -3.863281 2.710938 -3.859375 2.546875 -3.859375 C 2.390625 -3.859375 2.222656 -3.859375 2.046875 -3.859375 C 1.878906 -3.859375 1.726562 -3.851562 1.59375 -3.84375 C 1.457031 -3.84375 1.375 -3.84375 1.34375 -3.84375 C 1.226562 -3.84375 1.148438 -3.816406 1.109375 -3.765625 C 1.066406 -3.722656 1.046875 -3.625 1.046875 -3.46875 C 1.046875 -3.425781 1.046875 -3.332031 1.046875 -3.1875 C 1.054688 -3.039062 1.0625 -2.832031 1.0625 -2.5625 L 1.59375 -2.5625 C 1.8125 -2.5625 1.992188 -2.554688 2.140625 -2.546875 C 2.285156 -2.546875 2.394531 -2.535156 2.46875 -2.515625 C 2.550781 -2.492188 2.601562 -2.457031 2.625 -2.40625 C 2.65625 -2.363281 2.671875 -2.304688 2.671875 -2.234375 C 2.671875 -2.191406 2.664062 -2.15625 2.65625 -2.125 C 2.65625 -2.09375 2.640625 -2.066406 2.609375 -2.046875 C 2.578125 -2.023438 2.535156 -2.003906 2.484375 -1.984375 C 2.429688 -1.972656 2.351562 -1.960938 2.25 -1.953125 C 2.125 -1.941406 2.003906 -1.9375 1.890625 -1.9375 C 1.785156 -1.9375 1.679688 -1.9375 1.578125 -1.9375 L 1.046875 -1.9375 C 1.046875 -1.875 1.046875 -1.796875 1.046875 -1.703125 C 1.046875 -1.609375 1.046875 -1.515625 1.046875 -1.421875 C 1.046875 -1.328125 1.046875 -1.234375 1.046875 -1.140625 C 1.046875 -1.054688 1.050781 -0.988281 1.0625 -0.9375 C 1.0625 -0.863281 1.066406 -0.800781 1.078125 -0.75 C 1.097656 -0.707031 1.128906 -0.671875 1.171875 -0.640625 C 1.210938 -0.617188 1.269531 -0.597656 1.34375 -0.578125 C 1.425781 -0.566406 1.53125 -0.5625 1.65625 -0.5625 L 3.03125 -0.5625 C 3.175781 -0.5625 3.269531 -0.535156 3.3125 -0.484375 C 3.351562 -0.429688 3.375 -0.359375 3.375 -0.265625 C 3.375 -0.179688 3.351562 -0.117188 3.3125 -0.078125 C 3.28125 -0.046875 3.195312 -0.0195312 3.0625 0 C 2.9375 0.0195312 2.742188 0.03125 2.484375 0.03125 C 2.234375 0.0390625 1.882812 0.046875 1.4375 0.046875 C 1.238281 0.046875 1.078125 0.03125 0.953125 0 C 0.835938 -0.0390625 0.738281 -0.0976562 0.65625 -0.171875 C 0.582031 -0.253906 0.523438 -0.359375 0.484375 -0.484375 C 0.453125 -0.617188 0.429688 -0.78125 0.421875 -0.96875 Z M 0.421875 -0.96875 "/></g></g></g><g fill="#221649" fill-opacity="1"><g transform="translate(85.348079, 41.184817)"><g><path d="M 1.859375 -1.5625 C 1.796875 -1.5625 1.734375 -1.5625 1.671875 -1.5625 C 1.609375 -1.5625 1.546875 -1.5625 1.484375 -1.5625 C 1.410156 -1.5625 1.335938 -1.5625 1.265625 -1.5625 C 1.191406 -1.5625 1.113281 -1.5625 1.03125 -1.5625 L 1.03125 -0.28125 C 1.03125 -0.132812 0.992188 -0.046875 0.921875 -0.015625 C 0.859375 0.015625 0.78125 0.03125 0.6875 0.03125 C 0.632812 0.03125 0.59375 0.0234375 0.5625 0.015625 C 0.53125 0.00390625 0.503906 -0.00390625 0.484375 -0.015625 C 0.460938 -0.0351562 0.445312 -0.0664062 0.4375 -0.109375 C 0.425781 -0.148438 0.421875 -0.203125 0.421875 -0.265625 C 0.410156 -0.335938 0.398438 -0.445312 0.390625 -0.59375 C 0.390625 -0.75 0.390625 -0.941406 0.390625 -1.171875 C 0.390625 -1.410156 0.382812 -1.695312 0.375 -2.03125 C 0.375 -2.363281 0.375 -2.753906 0.375 -3.203125 C 0.375 -3.378906 0.394531 -3.546875 0.4375 -3.703125 C 0.488281 -3.867188 0.566406 -4.015625 0.671875 -4.140625 C 0.785156 -4.265625 0.9375 -4.363281 1.125 -4.4375 C 1.3125 -4.519531 1.550781 -4.5625 1.84375 -4.5625 C 2.050781 -4.5625 2.253906 -4.535156 2.453125 -4.484375 C 2.648438 -4.441406 2.828125 -4.363281 2.984375 -4.25 C 3.140625 -4.132812 3.265625 -3.976562 3.359375 -3.78125 C 3.453125 -3.582031 3.5 -3.335938 3.5 -3.046875 C 3.5 -2.648438 3.410156 -2.34375 3.234375 -2.125 C 3.066406 -1.914062 2.835938 -1.769531 2.546875 -1.6875 L 3.40625 -0.515625 C 3.476562 -0.410156 3.515625 -0.304688 3.515625 -0.203125 C 3.515625 -0.109375 3.484375 -0.0390625 3.421875 0 C 3.367188 0.0507812 3.300781 0.078125 3.21875 0.078125 C 3.125 0.078125 3.039062 0.0507812 2.96875 0 C 2.90625 -0.0507812 2.84375 -0.117188 2.78125 -0.203125 Z M 2.859375 -3.046875 C 2.859375 -3.347656 2.769531 -3.566406 2.59375 -3.703125 C 2.414062 -3.847656 2.132812 -3.921875 1.75 -3.921875 C 1.613281 -3.921875 1.5 -3.90625 1.40625 -3.875 C 1.3125 -3.851562 1.234375 -3.8125 1.171875 -3.75 C 1.117188 -3.6875 1.082031 -3.597656 1.0625 -3.484375 C 1.039062 -3.378906 1.03125 -3.238281 1.03125 -3.0625 C 1.03125 -2.9375 1.03125 -2.789062 1.03125 -2.625 C 1.03125 -2.457031 1.03125 -2.304688 1.03125 -2.171875 C 1.125 -2.171875 1.234375 -2.171875 1.359375 -2.171875 C 1.484375 -2.171875 1.597656 -2.171875 1.703125 -2.171875 C 1.816406 -2.171875 1.941406 -2.175781 2.078125 -2.1875 C 2.210938 -2.207031 2.335938 -2.242188 2.453125 -2.296875 C 2.566406 -2.359375 2.660156 -2.445312 2.734375 -2.5625 C 2.816406 -2.6875 2.859375 -2.847656 2.859375 -3.046875 Z M 2.859375 -3.046875 "/></g></g></g><g fill="#221649" fill-opacity="1"><g transform="translate(91.491922, 41.184817)"><g><path d="M 2.125 -0.25 C 2.070312 -0.15625 2.019531 -0.0820312 1.96875 -0.03125 C 1.925781 0.0078125 1.867188 0.03125 1.796875 0.03125 C 1.734375 0.03125 1.675781 0.0078125 1.625 -0.03125 C 1.570312 -0.0820312 1.515625 -0.15625 1.453125 -0.25 C 1.378906 -0.375 1.296875 -0.546875 1.203125 -0.765625 C 1.109375 -0.992188 1.007812 -1.238281 0.90625 -1.5 C 0.8125 -1.769531 0.71875 -2.046875 0.625 -2.328125 C 0.53125 -2.617188 0.445312 -2.890625 0.375 -3.140625 C 0.300781 -3.390625 0.238281 -3.609375 0.1875 -3.796875 C 0.144531 -3.992188 0.125 -4.128906 0.125 -4.203125 C 0.125 -4.285156 0.140625 -4.347656 0.171875 -4.390625 C 0.210938 -4.441406 0.28125 -4.46875 0.375 -4.46875 C 0.425781 -4.46875 0.472656 -4.453125 0.515625 -4.421875 C 0.554688 -4.390625 0.609375 -4.3125 0.671875 -4.1875 C 0.722656 -4.09375 0.78125 -3.960938 0.84375 -3.796875 C 0.90625 -3.640625 0.96875 -3.46875 1.03125 -3.28125 C 1.09375 -3.09375 1.15625 -2.890625 1.21875 -2.671875 C 1.289062 -2.460938 1.359375 -2.253906 1.421875 -2.046875 C 1.492188 -1.835938 1.5625 -1.640625 1.625 -1.453125 C 1.6875 -1.265625 1.742188 -1.09375 1.796875 -0.9375 C 1.847656 -1.09375 1.90625 -1.265625 1.96875 -1.453125 C 2.03125 -1.648438 2.09375 -1.851562 2.15625 -2.0625 C 2.226562 -2.269531 2.296875 -2.476562 2.359375 -2.6875 C 2.429688 -2.894531 2.5 -3.09375 2.5625 -3.28125 C 2.632812 -3.46875 2.695312 -3.640625 2.75 -3.796875 C 2.8125 -3.953125 2.867188 -4.082031 2.921875 -4.1875 C 2.984375 -4.3125 3.035156 -4.390625 3.078125 -4.421875 C 3.117188 -4.453125 3.164062 -4.46875 3.21875 -4.46875 C 3.3125 -4.46875 3.375 -4.441406 3.40625 -4.390625 C 3.445312 -4.335938 3.46875 -4.265625 3.46875 -4.171875 C 3.46875 -4.085938 3.453125 -3.984375 3.421875 -3.859375 C 3.398438 -3.742188 3.359375 -3.585938 3.296875 -3.390625 C 3.234375 -3.191406 3.148438 -2.945312 3.046875 -2.65625 C 2.953125 -2.363281 2.828125 -2.003906 2.671875 -1.578125 C 2.640625 -1.460938 2.597656 -1.34375 2.546875 -1.21875 C 2.492188 -1.101562 2.441406 -0.984375 2.390625 -0.859375 C 2.347656 -0.742188 2.300781 -0.632812 2.25 -0.53125 C 2.207031 -0.425781 2.164062 -0.332031 2.125 -0.25 Z M 2.125 -0.25 "/></g></g></g><g fill="#221649" fill-opacity="1"><g transform="translate(97.552918, 41.184817)"><g><path d="M 0.484375 -0.390625 C 0.472656 -0.546875 0.460938 -0.707031 0.453125 -0.875 C 0.453125 -1.039062 0.453125 -1.21875 0.453125 -1.40625 C 0.453125 -1.601562 0.453125 -1.8125 0.453125 -2.03125 C 0.453125 -2.25 0.453125 -2.5 0.453125 -2.78125 C 0.453125 -3.082031 0.453125 -3.335938 0.453125 -3.546875 C 0.453125 -3.765625 0.460938 -3.941406 0.484375 -4.078125 C 0.503906 -4.210938 0.535156 -4.3125 0.578125 -4.375 C 0.628906 -4.4375 0.691406 -4.46875 0.765625 -4.46875 C 0.804688 -4.46875 0.84375 -4.460938 0.875 -4.453125 C 0.914062 -4.453125 0.945312 -4.4375 0.96875 -4.40625 C 0.988281 -4.375 1.007812 -4.332031 1.03125 -4.28125 C 1.050781 -4.226562 1.066406 -4.160156 1.078125 -4.078125 C 1.078125 -3.921875 1.078125 -3.785156 1.078125 -3.671875 C 1.085938 -3.554688 1.09375 -3.4375 1.09375 -3.3125 C 1.101562 -3.195312 1.109375 -3.078125 1.109375 -2.953125 C 1.109375 -2.828125 1.109375 -2.6875 1.109375 -2.53125 C 1.109375 -2.34375 1.109375 -2.160156 1.109375 -1.984375 C 1.109375 -1.804688 1.101562 -1.632812 1.09375 -1.46875 C 1.09375 -1.300781 1.085938 -1.128906 1.078125 -0.953125 C 1.078125 -0.773438 1.078125 -0.59375 1.078125 -0.40625 C 1.066406 -0.300781 1.050781 -0.21875 1.03125 -0.15625 C 1.019531 -0.101562 1 -0.0625 0.96875 -0.03125 C 0.945312 -0.0078125 0.914062 0.00390625 0.875 0.015625 C 0.84375 0.0234375 0.804688 0.03125 0.765625 0.03125 C 0.691406 0.03125 0.625 0.00390625 0.5625 -0.046875 C 0.507812 -0.109375 0.484375 -0.222656 0.484375 -0.390625 Z M 0.484375 -0.390625 "/></g></g></g><g fill="#221649" fill-opacity="1"><g transform="translate(101.574456, 41.184817)"><g><path d="M 2.234375 -4.515625 C 2.378906 -4.515625 2.519531 -4.5 2.65625 -4.46875 C 2.800781 -4.445312 2.929688 -4.410156 3.046875 -4.359375 C 3.160156 -4.316406 3.253906 -4.257812 3.328125 -4.1875 C 3.398438 -4.125 3.4375 -4.046875 3.4375 -3.953125 C 3.4375 -3.847656 3.410156 -3.769531 3.359375 -3.71875 C 3.316406 -3.664062 3.253906 -3.640625 3.171875 -3.640625 C 3.097656 -3.640625 3.035156 -3.648438 2.984375 -3.671875 C 2.929688 -3.703125 2.867188 -3.734375 2.796875 -3.765625 C 2.722656 -3.796875 2.632812 -3.820312 2.53125 -3.84375 C 2.4375 -3.863281 2.3125 -3.875 2.15625 -3.875 C 1.988281 -3.875 1.832031 -3.832031 1.6875 -3.75 C 1.539062 -3.664062 1.410156 -3.550781 1.296875 -3.40625 C 1.191406 -3.257812 1.109375 -3.085938 1.046875 -2.890625 C 0.984375 -2.691406 0.953125 -2.472656 0.953125 -2.234375 C 0.953125 -1.941406 0.988281 -1.691406 1.0625 -1.484375 C 1.132812 -1.273438 1.226562 -1.101562 1.34375 -0.96875 C 1.46875 -0.84375 1.601562 -0.742188 1.75 -0.671875 C 1.90625 -0.609375 2.0625 -0.578125 2.21875 -0.578125 C 2.40625 -0.578125 2.554688 -0.59375 2.671875 -0.625 C 2.796875 -0.664062 2.898438 -0.707031 2.984375 -0.75 C 3.078125 -0.800781 3.15625 -0.847656 3.21875 -0.890625 C 3.28125 -0.929688 3.34375 -0.953125 3.40625 -0.953125 C 3.476562 -0.953125 3.535156 -0.929688 3.578125 -0.890625 C 3.617188 -0.847656 3.640625 -0.773438 3.640625 -0.671875 C 3.640625 -0.585938 3.601562 -0.5 3.53125 -0.40625 C 3.46875 -0.320312 3.375 -0.242188 3.25 -0.171875 C 3.125 -0.109375 2.972656 -0.0507812 2.796875 0 C 2.628906 0.0390625 2.4375 0.0625 2.21875 0.0625 C 1.976562 0.0625 1.738281 0.015625 1.5 -0.078125 C 1.269531 -0.171875 1.0625 -0.3125 0.875 -0.5 C 0.6875 -0.6875 0.535156 -0.914062 0.421875 -1.1875 C 0.304688 -1.46875 0.25 -1.796875 0.25 -2.171875 C 0.25 -2.535156 0.300781 -2.863281 0.40625 -3.15625 C 0.507812 -3.445312 0.648438 -3.691406 0.828125 -3.890625 C 1.015625 -4.085938 1.226562 -4.238281 1.46875 -4.34375 C 1.707031 -4.457031 1.960938 -4.515625 2.234375 -4.515625 Z M 2.234375 -4.515625 "/></g></g></g><g fill="#221649" fill-opacity="1"><g transform="translate(107.858515, 41.184817)"><g><path d="M 0.421875 -0.96875 C 0.410156 -1.101562 0.398438 -1.285156 0.390625 -1.515625 C 0.378906 -1.753906 0.375 -2 0.375 -2.25 C 0.375 -2.382812 0.375 -2.523438 0.375 -2.671875 C 0.382812 -2.828125 0.390625 -2.984375 0.390625 -3.140625 C 0.398438 -3.453125 0.421875 -3.695312 0.453125 -3.875 C 0.484375 -4.0625 0.546875 -4.195312 0.640625 -4.28125 C 0.742188 -4.375 0.878906 -4.429688 1.046875 -4.453125 C 1.222656 -4.472656 1.457031 -4.484375 1.75 -4.484375 C 1.75 -4.484375 1.789062 -4.484375 1.875 -4.484375 C 1.96875 -4.484375 2.078125 -4.476562 2.203125 -4.46875 C 2.328125 -4.46875 2.453125 -4.46875 2.578125 -4.46875 C 2.710938 -4.46875 2.828125 -4.460938 2.921875 -4.453125 C 3.015625 -4.441406 3.085938 -4.429688 3.140625 -4.421875 C 3.203125 -4.410156 3.25 -4.390625 3.28125 -4.359375 C 3.3125 -4.335938 3.328125 -4.3125 3.328125 -4.28125 C 3.335938 -4.25 3.34375 -4.210938 3.34375 -4.171875 C 3.34375 -4.078125 3.316406 -4.003906 3.265625 -3.953125 C 3.210938 -3.910156 3.097656 -3.882812 2.921875 -3.875 C 2.835938 -3.863281 2.710938 -3.859375 2.546875 -3.859375 C 2.390625 -3.859375 2.222656 -3.859375 2.046875 -3.859375 C 1.878906 -3.859375 1.726562 -3.851562 1.59375 -3.84375 C 1.457031 -3.84375 1.375 -3.84375 1.34375 -3.84375 C 1.226562 -3.84375 1.148438 -3.816406 1.109375 -3.765625 C 1.066406 -3.722656 1.046875 -3.625 1.046875 -3.46875 C 1.046875 -3.425781 1.046875 -3.332031 1.046875 -3.1875 C 1.054688 -3.039062 1.0625 -2.832031 1.0625 -2.5625 L 1.59375 -2.5625 C 1.8125 -2.5625 1.992188 -2.554688 2.140625 -2.546875 C 2.285156 -2.546875 2.394531 -2.535156 2.46875 -2.515625 C 2.550781 -2.492188 2.601562 -2.457031 2.625 -2.40625 C 2.65625 -2.363281 2.671875 -2.304688 2.671875 -2.234375 C 2.671875 -2.191406 2.664062 -2.15625 2.65625 -2.125 C 2.65625 -2.09375 2.640625 -2.066406 2.609375 -2.046875 C 2.578125 -2.023438 2.535156 -2.003906 2.484375 -1.984375 C 2.429688 -1.972656 2.351562 -1.960938 2.25 -1.953125 C 2.125 -1.941406 2.003906 -1.9375 1.890625 -1.9375 C 1.785156 -1.9375 1.679688 -1.9375 1.578125 -1.9375 L 1.046875 -1.9375 C 1.046875 -1.875 1.046875 -1.796875 1.046875 -1.703125 C 1.046875 -1.609375 1.046875 -1.515625 1.046875 -1.421875 C 1.046875 -1.328125 1.046875 -1.234375 1.046875 -1.140625 C 1.046875 -1.054688 1.050781 -0.988281 1.0625 -0.9375 C 1.0625 -0.863281 1.066406 -0.800781 1.078125 -0.75 C 1.097656 -0.707031 1.128906 -0.671875 1.171875 -0.640625 C 1.210938 -0.617188 1.269531 -0.597656 1.34375 -0.578125 C 1.425781 -0.566406 1.53125 -0.5625 1.65625 -0.5625 L 3.03125 -0.5625 C 3.175781 -0.5625 3.269531 -0.535156 3.3125 -0.484375 C 3.351562 -0.429688 3.375 -0.359375 3.375 -0.265625 C 3.375 -0.179688 3.351562 -0.117188 3.3125 -0.078125 C 3.28125 -0.046875 3.195312 -0.0195312 3.0625 0 C 2.9375 0.0195312 2.742188 0.03125 2.484375 0.03125 C 2.234375 0.0390625 1.882812 0.046875 1.4375 0.046875 C 1.238281 0.046875 1.078125 0.03125 0.953125 0 C 0.835938 -0.0390625 0.738281 -0.0976562 0.65625 -0.171875 C 0.582031 -0.253906 0.523438 -0.359375 0.484375 -0.484375 C 0.453125 -0.617188 0.429688 -0.78125 0.421875 -0.96875 Z M 0.421875 -0.96875 "/></g></g></g><g fill="#221649" fill-opacity="1"><g transform="translate(113.887645, 41.184817)"><g><path d="M 1.9375 -4.5 C 2.050781 -4.5 2.1875 -4.488281 2.34375 -4.46875 C 2.5 -4.445312 2.644531 -4.410156 2.78125 -4.359375 C 2.914062 -4.316406 3.03125 -4.253906 3.125 -4.171875 C 3.21875 -4.097656 3.265625 -4.003906 3.265625 -3.890625 C 3.265625 -3.816406 3.242188 -3.753906 3.203125 -3.703125 C 3.171875 -3.660156 3.113281 -3.640625 3.03125 -3.640625 C 2.96875 -3.640625 2.898438 -3.648438 2.828125 -3.671875 C 2.765625 -3.703125 2.691406 -3.734375 2.609375 -3.765625 C 2.523438 -3.796875 2.425781 -3.820312 2.3125 -3.84375 C 2.207031 -3.863281 2.082031 -3.875 1.9375 -3.875 C 1.664062 -3.875 1.460938 -3.820312 1.328125 -3.71875 C 1.191406 -3.625 1.125 -3.492188 1.125 -3.328125 C 1.125 -3.203125 1.148438 -3.097656 1.203125 -3.015625 C 1.265625 -2.941406 1.34375 -2.875 1.4375 -2.8125 C 1.539062 -2.757812 1.65625 -2.710938 1.78125 -2.671875 C 1.90625 -2.628906 2.035156 -2.59375 2.171875 -2.5625 C 2.316406 -2.519531 2.460938 -2.472656 2.609375 -2.421875 C 2.765625 -2.367188 2.898438 -2.296875 3.015625 -2.203125 C 3.128906 -2.117188 3.21875 -2.003906 3.28125 -1.859375 C 3.351562 -1.722656 3.390625 -1.550781 3.390625 -1.34375 C 3.390625 -1.132812 3.347656 -0.941406 3.265625 -0.765625 C 3.191406 -0.597656 3.082031 -0.453125 2.9375 -0.328125 C 2.800781 -0.203125 2.632812 -0.109375 2.4375 -0.046875 C 2.238281 0.015625 2.023438 0.046875 1.796875 0.046875 C 1.671875 0.046875 1.519531 0.0351562 1.34375 0.015625 C 1.175781 -0.00390625 1.015625 -0.0390625 0.859375 -0.09375 C 0.710938 -0.15625 0.582031 -0.234375 0.46875 -0.328125 C 0.363281 -0.429688 0.3125 -0.550781 0.3125 -0.6875 C 0.3125 -0.769531 0.332031 -0.835938 0.375 -0.890625 C 0.425781 -0.941406 0.5 -0.96875 0.59375 -0.96875 C 0.65625 -0.96875 0.707031 -0.953125 0.75 -0.921875 C 0.800781 -0.898438 0.847656 -0.867188 0.890625 -0.828125 C 1.015625 -0.722656 1.15625 -0.648438 1.3125 -0.609375 C 1.476562 -0.566406 1.644531 -0.546875 1.8125 -0.546875 C 1.914062 -0.546875 2.019531 -0.550781 2.125 -0.5625 C 2.226562 -0.582031 2.328125 -0.613281 2.421875 -0.65625 C 2.515625 -0.707031 2.585938 -0.773438 2.640625 -0.859375 C 2.703125 -0.953125 2.734375 -1.070312 2.734375 -1.21875 C 2.734375 -1.351562 2.707031 -1.460938 2.65625 -1.546875 C 2.601562 -1.640625 2.53125 -1.71875 2.4375 -1.78125 C 2.351562 -1.84375 2.25 -1.890625 2.125 -1.921875 C 2 -1.960938 1.867188 -2.003906 1.734375 -2.046875 C 1.578125 -2.085938 1.421875 -2.128906 1.265625 -2.171875 C 1.117188 -2.222656 0.984375 -2.289062 0.859375 -2.375 C 0.742188 -2.46875 0.644531 -2.582031 0.5625 -2.71875 C 0.488281 -2.851562 0.453125 -3.023438 0.453125 -3.234375 C 0.453125 -3.441406 0.488281 -3.625 0.5625 -3.78125 C 0.644531 -3.9375 0.75 -4.066406 0.875 -4.171875 C 1.007812 -4.273438 1.164062 -4.351562 1.34375 -4.40625 C 1.53125 -4.46875 1.726562 -4.5 1.9375 -4.5 Z M 1.9375 -4.5 "/></g></g></g><g fill="#221649" fill-opacity="1"><g transform="translate(120.068378, 41.184817)"><g/></g></g><g clip-path="url(#f4e9b49e6c)"><path fill="#221649" d="M 5.761719 10.851562 L 24.507812 42.207031 C 24.695312 42.519531 25.03125 42.710938 25.394531 42.710938 C 25.757812 42.710938 26.09375 42.519531 26.28125 42.207031 L 34.765625 28.011719 L 43.253906 42.207031 C 43.4375 42.519531 43.777344 42.710938 44.140625 42.710938 C 44.503906 42.710938 44.839844 42.519531 45.027344 42.207031 L 63.769531 10.851562 C 63.960938 10.535156 63.964844 10.136719 63.78125 9.8125 C 63.601562 9.492188 63.257812 9.289062 62.886719 9.289062 L 53.40625 9.289062 C 53.039062 9.289062 52.699219 9.484375 52.515625 9.800781 L 45.082031 22.472656 C 44.792969 22.964844 44.957031 23.59375 45.449219 23.882812 C 45.941406 24.171875 46.574219 24.007812 46.863281 23.515625 L 53.996094 11.355469 L 61.0625 11.355469 L 44.140625 39.667969 L 35.96875 26 L 45.027344 10.851562 C 45.214844 10.535156 45.222656 10.136719 45.039062 9.8125 C 44.855469 9.492188 44.511719 9.289062 44.140625 9.289062 L 34.660156 9.289062 C 34.292969 9.289062 33.953125 9.484375 33.769531 9.800781 L 26.335938 22.472656 C 26.046875 22.964844 26.210938 23.59375 26.703125 23.882812 C 27.195312 24.171875 27.828125 24.007812 28.117188 23.515625 L 35.25 11.355469 L 42.320312 11.355469 L 33.882812 25.464844 C 33.878906 25.46875 33.878906 25.476562 33.875 25.480469 L 25.394531 39.667969 L 8.46875 11.355469 L 23.65625 11.355469 L 21.578125 15.175781 C 21.308594 15.675781 21.492188 16.304688 21.992188 16.574219 C 22.492188 16.847656 23.121094 16.664062 23.394531 16.160156 L 26.300781 10.816406 C 26.472656 10.496094 26.46875 10.109375 26.28125 9.796875 C 26.09375 9.484375 25.757812 9.289062 25.394531 9.289062 L 6.648438 9.289062 C 6.277344 9.289062 5.933594 9.492188 5.75 9.8125 C 5.566406 10.136719 5.570312 10.535156 5.761719 10.851562 " fill-opacity="1" fill-rule="nonzero"/></g></svg>