<svg xmlns="http://www.w3.org/2000/svg" xmlns:xlink="http://www.w3.org/1999/xlink" width="200" zoomAndPan="magnify" viewBox="0 0 150 60" height="80" preserveAspectRatio="xMidYMid meet" version="1.0"><defs><g/><clipPath id="a682538e45"><path d="M 71.476562 14.566406 L 81.152344 14.566406 L 81.152344 24.242188 L 71.476562 24.242188 Z M 71.476562 14.566406 " clip-rule="nonzero"/></clipPath><clipPath id="fc5201b7cd"><path d="M 76.3125 14.566406 C 73.640625 14.566406 71.476562 16.734375 71.476562 19.40625 C 71.476562 22.078125 73.640625 24.242188 76.3125 24.242188 C 78.984375 24.242188 81.152344 22.078125 81.152344 19.40625 C 81.152344 16.734375 78.984375 14.566406 76.3125 14.566406 Z M 76.3125 14.566406 " clip-rule="nonzero"/></clipPath><clipPath id="a3f0b0471a"><path d="M 90.910156 8.664062 L 96.015625 8.664062 L 96.015625 13.769531 L 90.910156 13.769531 Z M 90.910156 8.664062 " clip-rule="nonzero"/></clipPath><clipPath id="834870a536"><path d="M 93.460938 8.664062 C 92.050781 8.664062 90.910156 9.804688 90.910156 11.21875 C 90.910156 12.628906 92.050781 13.769531 93.460938 13.769531 C 94.875 13.769531 96.015625 12.628906 96.015625 11.21875 C 96.015625 9.804688 94.875 8.664062 93.460938 8.664062 Z M 93.460938 8.664062 " clip-rule="nonzero"/></clipPath><clipPath id="417c254c93"><path d="M 92.660156 25.363281 L 96.761719 25.363281 L 96.761719 29.464844 L 92.660156 29.464844 Z M 92.660156 25.363281 " clip-rule="nonzero"/></clipPath><clipPath id="13eb127808"><path d="M 94.710938 25.363281 C 93.578125 25.363281 92.660156 26.28125 92.660156 27.414062 C 92.660156 28.546875 93.578125 29.464844 94.710938 29.464844 C 95.84375 29.464844 96.761719 28.546875 96.761719 27.414062 C 96.761719 26.28125 95.84375 25.363281 94.710938 25.363281 Z M 94.710938 25.363281 " clip-rule="nonzero"/></clipPath><clipPath id="6b6ae319af"><path d="M 68.527344 26.636719 L 72.628906 26.636719 L 72.628906 30.738281 L 68.527344 30.738281 Z M 68.527344 26.636719 " clip-rule="nonzero"/></clipPath><clipPath id="80e0a987e0"><path d="M 70.578125 26.636719 C 69.445312 26.636719 68.527344 27.554688 68.527344 28.6875 C 68.527344 29.820312 69.445312 30.738281 70.578125 30.738281 C 71.710938 30.738281 72.628906 29.820312 72.628906 28.6875 C 72.628906 27.554688 71.710938 26.636719 70.578125 26.636719 Z M 70.578125 26.636719 " clip-rule="nonzero"/></clipPath><clipPath id="ab3b93a28d"><path d="M 81.933594 27.414062 L 87.789062 27.414062 L 87.789062 33.265625 L 81.933594 33.265625 Z M 81.933594 27.414062 " clip-rule="nonzero"/></clipPath><clipPath id="9c5acde16d"><path d="M 84.863281 27.414062 C 83.246094 27.414062 81.933594 28.722656 81.933594 30.339844 C 81.933594 31.953125 83.246094 33.265625 84.863281 33.265625 C 86.476562 33.265625 87.789062 31.953125 87.789062 30.339844 C 87.789062 28.722656 86.476562 27.414062 84.863281 27.414062 Z M 84.863281 27.414062 " clip-rule="nonzero"/></clipPath><clipPath id="85b71e3558"><path d="M 72.097656 36.566406 L 77.949219 36.566406 L 77.949219 42.417969 L 72.097656 42.417969 Z M 72.097656 36.566406 " clip-rule="nonzero"/></clipPath><clipPath id="bc55798d94"><path d="M 75.023438 36.566406 C 73.410156 36.566406 72.097656 37.875 72.097656 39.492188 C 72.097656 41.109375 73.410156 42.417969 75.023438 42.417969 C 76.640625 42.417969 77.949219 41.109375 77.949219 39.492188 C 77.949219 37.875 76.640625 36.566406 75.023438 36.566406 Z M 75.023438 36.566406 " clip-rule="nonzero"/></clipPath><clipPath id="e5f55d6912"><path d="M 54.789062 25.363281 L 61.4375 25.363281 L 61.4375 32.011719 L 54.789062 32.011719 Z M 54.789062 25.363281 " clip-rule="nonzero"/></clipPath><clipPath id="20e50f2ba7"><path d="M 58.113281 25.363281 C 56.277344 25.363281 54.789062 26.851562 54.789062 28.6875 C 54.789062 30.523438 56.277344 32.011719 58.113281 32.011719 C 59.949219 32.011719 61.4375 30.523438 61.4375 28.6875 C 61.4375 26.851562 59.949219 25.363281 58.113281 25.363281 Z M 58.113281 25.363281 " clip-rule="nonzero"/></clipPath><clipPath id="ee419e5181"><path d="M 53.238281 16.023438 L 57.691406 16.023438 L 57.691406 20.472656 L 53.238281 20.472656 Z M 53.238281 16.023438 " clip-rule="nonzero"/></clipPath><clipPath id="f9fa593937"><path d="M 55.464844 16.023438 C 54.238281 16.023438 53.238281 17.019531 53.238281 18.25 C 53.238281 19.476562 54.238281 20.472656 55.464844 20.472656 C 56.695312 20.472656 57.691406 19.476562 57.691406 18.25 C 57.691406 17.019531 56.695312 16.023438 55.464844 16.023438 Z M 55.464844 16.023438 " clip-rule="nonzero"/></clipPath><clipPath id="228fa21d75"><path d="M 75.023438 3.492188 L 79.476562 3.492188 L 79.476562 7.945312 L 75.023438 7.945312 Z M 75.023438 3.492188 " clip-rule="nonzero"/></clipPath><clipPath id="f66539f9dd"><path d="M 77.25 3.492188 C 76.019531 3.492188 75.023438 4.488281 75.023438 5.71875 C 75.023438 6.945312 76.019531 7.945312 77.25 7.945312 C 78.480469 7.945312 79.476562 6.945312 79.476562 5.71875 C 79.476562 4.488281 78.480469 3.492188 77.25 3.492188 Z M 77.25 3.492188 " clip-rule="nonzero"/></clipPath><clipPath id="daec5dc2cf"><path d="M 64.722656 4.980469 L 68.40625 4.980469 L 68.40625 8.664062 L 64.722656 8.664062 Z M 64.722656 4.980469 " clip-rule="nonzero"/></clipPath><clipPath id="a795f4fb8d"><path d="M 66.566406 4.980469 C 65.546875 4.980469 64.722656 5.804688 64.722656 6.820312 C 64.722656 7.839844 65.546875 8.664062 66.566406 8.664062 C 67.582031 8.664062 68.40625 7.839844 68.40625 6.820312 C 68.40625 5.804688 67.582031 4.980469 66.566406 4.980469 Z M 66.566406 4.980469 " clip-rule="nonzero"/></clipPath><clipPath id="87b9c1650f"><path d="M 63.867188 16.492188 L 66.460938 16.492188 L 66.460938 19.085938 L 63.867188 19.085938 Z M 63.867188 16.492188 " clip-rule="nonzero"/></clipPath><clipPath id="df1c95c3eb"><path d="M 65.164062 16.492188 C 64.449219 16.492188 63.867188 17.070312 63.867188 17.789062 C 63.867188 18.503906 64.449219 19.085938 65.164062 19.085938 C 65.882812 19.085938 66.460938 18.503906 66.460938 17.789062 C 66.460938 17.070312 65.882812 16.492188 65.164062 16.492188 Z M 65.164062 16.492188 " clip-rule="nonzero"/></clipPath><clipPath id="d839205e6b"><path d="M 125.335938 40.949219 L 132.085938 40.949219 L 132.085938 47.699219 L 125.335938 47.699219 Z M 125.335938 40.949219 " clip-rule="nonzero"/></clipPath></defs><g clip-path="url(#a682538e45)"><g clip-path="url(#fc5201b7cd)"><path fill="#f49464" d="M 71.476562 14.566406 L 81.152344 14.566406 L 81.152344 24.242188 L 71.476562 24.242188 Z M 71.476562 14.566406 " fill-opacity="1" fill-rule="nonzero"/></g></g><g clip-path="url(#a3f0b0471a)"><g clip-path="url(#834870a536)"><path fill="#f49464" d="M 90.910156 8.664062 L 96.015625 8.664062 L 96.015625 13.769531 L 90.910156 13.769531 Z M 90.910156 8.664062 " fill-opacity="1" fill-rule="nonzero"/></g></g><g clip-path="url(#417c254c93)"><g clip-path="url(#13eb127808)"><path fill="#f49464" d="M 92.660156 25.363281 L 96.761719 25.363281 L 96.761719 29.464844 L 92.660156 29.464844 Z M 92.660156 25.363281 " fill-opacity="1" fill-rule="nonzero"/></g></g><g clip-path="url(#6b6ae319af)"><g clip-path="url(#80e0a987e0)"><path fill="#f49464" d="M 68.527344 26.636719 L 72.628906 26.636719 L 72.628906 30.738281 L 68.527344 30.738281 Z M 68.527344 26.636719 " fill-opacity="1" fill-rule="nonzero"/></g></g><g clip-path="url(#ab3b93a28d)"><g clip-path="url(#9c5acde16d)"><path fill="#f49464" d="M 81.933594 27.414062 L 87.789062 27.414062 L 87.789062 33.265625 L 81.933594 33.265625 Z M 81.933594 27.414062 " fill-opacity="1" fill-rule="nonzero"/></g></g><g clip-path="url(#85b71e3558)"><g clip-path="url(#bc55798d94)"><path fill="#f49464" d="M 72.097656 36.566406 L 77.949219 36.566406 L 77.949219 42.417969 L 72.097656 42.417969 Z M 72.097656 36.566406 " fill-opacity="1" fill-rule="nonzero"/></g></g><g clip-path="url(#e5f55d6912)"><g clip-path="url(#20e50f2ba7)"><path fill="#f49464" d="M 54.789062 25.363281 L 61.4375 25.363281 L 61.4375 32.011719 L 54.789062 32.011719 Z M 54.789062 25.363281 " fill-opacity="1" fill-rule="nonzero"/></g></g><g clip-path="url(#ee419e5181)"><g clip-path="url(#f9fa593937)"><path fill="#f49464" d="M 53.238281 16.023438 L 57.691406 16.023438 L 57.691406 20.472656 L 53.238281 20.472656 Z M 53.238281 16.023438 " fill-opacity="1" fill-rule="nonzero"/></g></g><g clip-path="url(#228fa21d75)"><g clip-path="url(#f66539f9dd)"><path fill="#f49464" d="M 75.023438 3.492188 L 79.476562 3.492188 L 79.476562 7.945312 L 75.023438 7.945312 Z M 75.023438 3.492188 " fill-opacity="1" fill-rule="nonzero"/></g></g><g clip-path="url(#daec5dc2cf)"><g clip-path="url(#a795f4fb8d)"><path fill="#f49464" d="M 64.722656 4.980469 L 68.40625 4.980469 L 68.40625 8.664062 L 64.722656 8.664062 Z M 64.722656 4.980469 " fill-opacity="1" fill-rule="nonzero"/></g></g><path stroke-linecap="butt" transform="matrix(0.0420632, -0.0433024, 0.0433024, 0.0420632, 56.713306, 16.357181)" fill="none" stroke-linejoin="miter" d="M -0.0177646 6.998833 L 196.517643 6.969016 " stroke="#fc9464" stroke-width="14" stroke-opacity="1" stroke-miterlimit="4"/><path stroke-linecap="butt" transform="matrix(0.0451183, -0.0401093, 0.0401093, 0.0451183, 65.001808, 16.335622)" fill="none" stroke-linejoin="miter" d="M -0.026221 6.996496 L 237.802075 6.997921 " stroke="#fc9464" stroke-width="14" stroke-opacity="1" stroke-miterlimit="4"/><path stroke-linecap="butt" transform="matrix(0.0309529, -0.0518299, 0.0518299, 0.0309529, 56.934365, 29.806392)" fill="none" stroke-linejoin="miter" d="M -0.00787354 6.998932 L 257.965177 6.986683 " stroke="#fc9464" stroke-width="14" stroke-opacity="1" stroke-miterlimit="4"/><path stroke-linecap="butt" transform="matrix(0.00949215, -0.0596181, 0.0596181, 0.00949215, 64.306572, 18.181451)" fill="none" stroke-linejoin="miter" d="M 0.0262539 6.974985 L 183.094066 6.984603 " stroke="#fc9464" stroke-width="14" stroke-opacity="1" stroke-miterlimit="4"/><path stroke-linecap="butt" transform="matrix(-0.0601266, 0.00540501, -0.00540501, -0.0601266, 65.890845, 18.102125)" fill="none" stroke-linejoin="miter" d="M 0.0215839 7.027738 L 156.07304 7.022907 " stroke="#fc9464" stroke-width="14" stroke-opacity="1" stroke-miterlimit="4"/><path stroke-linecap="butt" transform="matrix(-0.0597199, 0.00882916, -0.00882916, -0.0597199, 87.805705, 18.138903)" fill="none" stroke-linejoin="miter" d="M 0.0324214 6.974782 L 119.470602 6.972285 " stroke="#fc9464" stroke-width="14" stroke-opacity="1" stroke-miterlimit="4"/><path stroke-linecap="butt" transform="matrix(-0.0573356, -0.0188957, 0.0188957, -0.0573356, 91.336631, 11.241725)" fill="none" stroke-linejoin="miter" d="M 0.00512132 7.007592 L 230.489257 7.013179 " stroke="#fc9464" stroke-width="14" stroke-opacity="1" stroke-miterlimit="4"/><path stroke-linecap="butt" transform="matrix(-0.00437697, -0.0602101, 0.0602101, -0.00437697, 93.866948, 26.637166)" fill="none" stroke-linejoin="miter" d="M 0.0167226 7.011902 L 230.523179 7.030285 " stroke="#fc9464" stroke-width="14" stroke-opacity="1" stroke-miterlimit="4"/><path stroke-linecap="butt" transform="matrix(-0.0399014, -0.0453023, 0.0453023, -0.0399014, 87.469391, 17.99982)" fill="none" stroke-linejoin="miter" d="M 0.0366686 7.002485 L 230.639741 6.964021 " stroke="#fc9464" stroke-width="14" stroke-opacity="1" stroke-miterlimit="4"/><path stroke-linecap="butt" transform="matrix(-0.0370685, -0.0476481, 0.0476481, -0.0370685, 94.924669, 27.638847)" fill="none" stroke-linejoin="miter" d="M 0.0100234 6.999548 L 202.702247 6.954998 " stroke="#fc9464" stroke-width="14" stroke-opacity="1" stroke-miterlimit="4"/><path stroke-linecap="butt" transform="matrix(-0.0389378, 0.0461331, -0.0461331, -0.0389378, 93.285428, 12.337927)" fill="none" stroke-linejoin="miter" d="M 0.0298633 7.00858 L 134.063648 7.003584 " stroke="#fc9464" stroke-width="14" stroke-opacity="1" stroke-miterlimit="4"/><path stroke-linecap="butt" transform="matrix(-0.0156247, 0.058312, -0.058312, -0.0156247, 88.423144, 18.467087)" fill="none" stroke-linejoin="miter" d="M 0.0237194 6.982233 L 175.738155 6.992811 " stroke="#fc9464" stroke-width="14" stroke-opacity="1" stroke-miterlimit="4"/><path stroke-linecap="butt" transform="matrix(-0.00379074, 0.0602499, -0.0602499, -0.00379074, 76.534905, 23.114347)" fill="none" stroke-linejoin="miter" d="M -0.0311212 6.999873 L 230.193239 6.972853 " stroke="#fc9464" stroke-width="14" stroke-opacity="1" stroke-miterlimit="4"/><path stroke-linecap="butt" transform="matrix(0.0264061, 0.0542875, -0.0542875, 0.0264061, 65.104077, 16.466991)" fill="none" stroke-linejoin="miter" d="M -0.00261148 7.024674 L 187.726165 7.02764 " stroke="#fc9464" stroke-width="14" stroke-opacity="1" stroke-miterlimit="4"/><path stroke-linecap="butt" transform="matrix(0.0369445, 0.0477443, -0.0477443, 0.0369445, 77.174498, 19.803606)" fill="none" stroke-linejoin="miter" d="M -0.000805629 7.008669 L 187.772116 7.002033 " stroke="#fc9464" stroke-width="14" stroke-opacity="1" stroke-miterlimit="4"/><path stroke-linecap="butt" transform="matrix(0.0578147, -0.0173748, 0.0173748, 0.0578147, 84.937936, 30.045127)" fill="none" stroke-linejoin="miter" d="M -0.0123995 6.985706 L 187.747849 6.995572 " stroke="#fc9464" stroke-width="14" stroke-opacity="1" stroke-miterlimit="4"/><path stroke-linecap="butt" transform="matrix(0.0598162, 0.00815104, -0.00815104, 0.0598162, 64.123752, 17.064371)" fill="none" stroke-linejoin="miter" d="M -0.0018439 7.021828 L 187.741018 6.972422 " stroke="#fc9464" stroke-width="14" stroke-opacity="1" stroke-miterlimit="4"/><path stroke-linecap="butt" transform="matrix(0.0292408, -0.0528147, 0.0528147, 0.0292408, 70.169279, 29.462969)" fill="none" stroke-linejoin="miter" d="M -0.00391614 7.003681 L 187.705075 6.994687 " stroke="#fc9464" stroke-width="14" stroke-opacity="1" stroke-miterlimit="4"/><path stroke-linecap="butt" transform="matrix(-0.0157708, -0.0582726, 0.0582726, -0.0157708, 57.959878, 29.359309)" fill="none" stroke-linejoin="miter" d="M -0.0147743 6.985729 L 187.746592 6.989168 " stroke="#fc9464" stroke-width="14" stroke-opacity="1" stroke-miterlimit="4"/><path stroke-linecap="butt" transform="matrix(-0.0510279, -0.0322579, 0.0322579, -0.0510279, 73.932969, 39.134224)" fill="none" stroke-linejoin="miter" d="M -0.0221389 7.007821 L 301.654264 6.988623 " stroke="#fc9464" stroke-width="14" stroke-opacity="1" stroke-miterlimit="4"/><path stroke-linecap="butt" transform="matrix(-0.0229724, -0.0558273, 0.0558273, -0.0229724, 73.519391, 36.94581)" fill="none" stroke-linejoin="miter" d="M -0.00218754 6.998633 L 111.099565 7.025434 " stroke="#fc9464" stroke-width="14" stroke-opacity="1" stroke-miterlimit="4"/><path stroke-linecap="butt" transform="matrix(0.0426873, -0.0426873, 0.0426873, 0.0426873, 76.612307, 37.456711)" fill="none" stroke-linejoin="miter" d="M 0.00765416 6.969802 L 145.048457 6.969802 " stroke="#fc9464" stroke-width="14" stroke-opacity="1" stroke-miterlimit="4"/><path stroke-linecap="butt" transform="matrix(0.0602911, 0.00306702, -0.00306702, 0.0602911, 61.182391, 28.604603)" fill="none" stroke-linejoin="miter" d="M -0.0120756 7.012273 L 145.052769 7.018848 " stroke="#fc9464" stroke-width="14" stroke-opacity="1" stroke-miterlimit="4"/><path stroke-linecap="butt" transform="matrix(-0.00401255, 0.0602355, -0.0602355, -0.00401255, 77.370554, 6.761602)" fill="none" stroke-linejoin="miter" d="M 0.0138853 6.993866 L 183.540362 7.024933 " stroke="#fc9464" stroke-width="14" stroke-opacity="1" stroke-miterlimit="4"/><path stroke-linecap="butt" transform="matrix(0.0600939, -0.0057571, 0.0057571, 0.0600939, 66.867684, 5.703329)" fill="none" stroke-linejoin="miter" d="M -0.0301826 7.013981 L 172.748561 6.990856 " stroke="#fc9464" stroke-width="14" stroke-opacity="1" stroke-miterlimit="4"/><g clip-path="url(#87b9c1650f)"><g clip-path="url(#df1c95c3eb)"><path fill="#f49464" d="M 63.867188 16.492188 L 66.460938 16.492188 L 66.460938 19.085938 L 63.867188 19.085938 Z M 63.867188 16.492188 " fill-opacity="1" fill-rule="nonzero"/></g></g><path fill="#2b5fc0" d="M 128.859375 44.425781 C 129.257812 44.425781 129.519531 44.207031 129.519531 43.808594 C 129.519531 43.410156 129.257812 43.21875 128.851562 43.21875 L 128.214844 43.21875 L 128.214844 44.425781 Z M 127.652344 42.703125 L 128.886719 42.703125 C 129.621094 42.703125 130.09375 43.097656 130.09375 43.800781 C 130.09375 44.332031 129.800781 44.664062 129.382812 44.8125 L 130.1875 46.144531 L 129.53125 46.144531 L 128.800781 44.929688 C 128.796875 44.925781 128.621094 44.929688 128.613281 44.929688 L 128.214844 44.929688 L 128.214844 46.144531 L 127.652344 46.144531 L 127.652344 42.703125 " fill-opacity="1" fill-rule="nonzero"/><g clip-path="url(#d839205e6b)"><path fill="#2b5fc0" d="M 128.808594 41.542969 C 128.421875 41.542969 128.042969 41.621094 127.6875 41.769531 C 127.347656 41.914062 127.039062 42.121094 126.773438 42.386719 C 126.507812 42.652344 126.300781 42.960938 126.15625 43.300781 C 126.007812 43.65625 125.929688 44.035156 125.929688 44.421875 C 125.929688 44.8125 126.007812 45.1875 126.15625 45.542969 C 126.300781 45.886719 126.507812 46.191406 126.773438 46.457031 C 127.039062 46.722656 127.347656 46.929688 127.6875 47.074219 C 128.042969 47.222656 128.421875 47.300781 128.808594 47.300781 C 129.199219 47.300781 129.574219 47.222656 129.929688 47.074219 C 130.273438 46.929688 130.578125 46.722656 130.84375 46.457031 C 131.109375 46.191406 131.316406 45.886719 131.460938 45.542969 C 131.609375 45.1875 131.6875 44.8125 131.6875 44.421875 C 131.6875 44.035156 131.609375 43.65625 131.460938 43.300781 C 131.316406 42.960938 131.109375 42.652344 130.84375 42.386719 C 130.578125 42.121094 130.273438 41.914062 129.929688 41.769531 C 129.574219 41.621094 129.199219 41.542969 128.808594 41.542969 Z M 128.808594 47.898438 C 128.339844 47.898438 127.886719 47.804688 127.457031 47.625 C 127.042969 47.449219 126.671875 47.199219 126.351562 46.878906 C 126.03125 46.558594 125.78125 46.1875 125.609375 45.773438 C 125.425781 45.347656 125.335938 44.890625 125.335938 44.421875 C 125.335938 43.953125 125.425781 43.5 125.609375 43.070312 C 125.78125 42.65625 126.03125 42.285156 126.351562 41.964844 C 126.671875 41.648438 127.042969 41.394531 127.457031 41.222656 C 127.886719 41.039062 128.339844 40.949219 128.808594 40.949219 C 129.277344 40.949219 129.734375 41.039062 130.160156 41.222656 C 130.574219 41.394531 130.945312 41.648438 131.265625 41.964844 C 131.585938 42.285156 131.835938 42.65625 132.011719 43.070312 C 132.191406 43.5 132.285156 43.953125 132.285156 44.421875 C 132.285156 44.890625 132.191406 45.347656 132.011719 45.773438 C 131.835938 46.1875 131.585938 46.558594 131.265625 46.878906 C 130.945312 47.199219 130.574219 47.449219 130.160156 47.625 C 129.734375 47.804688 129.277344 47.898438 128.808594 47.898438 " fill-opacity="1" fill-rule="nonzero"/></g><g fill="#2b5fc0" fill-opacity="1"><g transform="translate(21.940223, 56.333308)"><g><path d="M 5.8125 -7.015625 C 5.8125 -7.359375 5.6875 -7.617188 5.4375 -7.796875 C 5.195312 -7.984375 4.878906 -8.078125 4.484375 -8.078125 C 4.097656 -8.078125 3.78125 -8 3.53125 -7.84375 C 3.289062 -7.6875 3.171875 -7.46875 3.171875 -7.1875 C 3.171875 -7 3.234375 -6.847656 3.359375 -6.734375 C 3.484375 -6.628906 3.632812 -6.550781 3.8125 -6.5 C 4 -6.457031 4.175781 -6.425781 4.34375 -6.40625 C 4.507812 -6.394531 4.632812 -6.382812 4.71875 -6.375 C 5.082031 -6.320312 5.457031 -6.25 5.84375 -6.15625 C 6.238281 -6.070312 6.609375 -5.945312 6.953125 -5.78125 C 7.304688 -5.613281 7.613281 -5.378906 7.875 -5.078125 C 8.144531 -4.785156 8.332031 -4.410156 8.4375 -3.953125 C 8.488281 -3.691406 8.515625 -3.453125 8.515625 -3.234375 C 8.515625 -2.703125 8.394531 -2.226562 8.15625 -1.8125 C 7.925781 -1.394531 7.613281 -1.039062 7.21875 -0.75 C 6.832031 -0.46875 6.398438 -0.25 5.921875 -0.09375 C 5.453125 0.0507812 4.972656 0.125 4.484375 0.125 C 4.066406 0.125 3.628906 0.0546875 3.171875 -0.078125 C 2.710938 -0.210938 2.285156 -0.421875 1.890625 -0.703125 C 1.492188 -0.992188 1.171875 -1.367188 0.921875 -1.828125 C 0.671875 -2.285156 0.546875 -2.84375 0.546875 -3.5 L 3.078125 -3.5 C 3.078125 -3.164062 3.15625 -2.910156 3.3125 -2.734375 C 3.46875 -2.566406 3.65625 -2.453125 3.875 -2.390625 C 4.101562 -2.328125 4.3125 -2.296875 4.5 -2.296875 C 4.90625 -2.296875 5.253906 -2.359375 5.546875 -2.484375 C 5.835938 -2.617188 5.984375 -2.832031 5.984375 -3.125 C 5.984375 -3.3125 5.921875 -3.453125 5.796875 -3.546875 C 5.671875 -3.648438 5.519531 -3.726562 5.34375 -3.78125 C 5.164062 -3.832031 4.992188 -3.863281 4.828125 -3.875 C 4.660156 -3.894531 4.523438 -3.910156 4.421875 -3.921875 C 4.015625 -3.960938 3.59375 -4.023438 3.15625 -4.109375 C 2.726562 -4.203125 2.332031 -4.347656 1.96875 -4.546875 C 1.601562 -4.742188 1.296875 -5.023438 1.046875 -5.390625 C 0.804688 -5.753906 0.660156 -6.226562 0.609375 -6.8125 L 0.609375 -6.796875 C 0.578125 -7.546875 0.734375 -8.191406 1.078125 -8.734375 C 1.429688 -9.273438 1.910156 -9.6875 2.515625 -9.96875 C 3.117188 -10.257812 3.789062 -10.40625 4.53125 -10.40625 C 4.988281 -10.40625 5.441406 -10.335938 5.890625 -10.203125 C 6.335938 -10.078125 6.75 -9.875 7.125 -9.59375 C 7.5 -9.320312 7.796875 -8.972656 8.015625 -8.546875 C 8.234375 -8.117188 8.34375 -7.609375 8.34375 -7.015625 Z M 5.8125 -7.015625 "/></g></g></g><g fill="#2b5fc0" fill-opacity="1"><g transform="translate(31.118466, 56.333308)"><g><path d="M 9.34375 0 L 7.90625 0 L 7.90625 -1.0625 C 7.71875 -0.78125 7.460938 -0.550781 7.140625 -0.375 C 6.816406 -0.207031 6.472656 -0.0820312 6.109375 0 C 5.742188 0.0820312 5.398438 0.125 5.078125 0.125 C 4.148438 0.125 3.367188 -0.0664062 2.734375 -0.453125 C 2.097656 -0.835938 1.617188 -1.34375 1.296875 -1.96875 C 0.972656 -2.601562 0.8125 -3.28125 0.8125 -4 C 0.8125 -4.71875 0.972656 -5.382812 1.296875 -6 C 1.628906 -6.613281 2.113281 -7.109375 2.75 -7.484375 C 3.382812 -7.867188 4.148438 -8.0625 5.046875 -8.0625 C 5.378906 -8.0625 5.71875 -8.03125 6.0625 -7.96875 C 6.414062 -7.90625 6.753906 -7.785156 7.078125 -7.609375 C 7.398438 -7.441406 7.679688 -7.195312 7.921875 -6.875 L 7.90625 -7.921875 L 9.34375 -7.921875 Z M 7.90625 -3.96875 C 7.90625 -4.601562 7.757812 -5.128906 7.46875 -5.546875 C 7.175781 -5.960938 6.8125 -6.273438 6.375 -6.484375 C 5.9375 -6.691406 5.492188 -6.796875 5.046875 -6.796875 C 4.460938 -6.796875 3.960938 -6.671875 3.546875 -6.421875 C 3.128906 -6.171875 2.804688 -5.835938 2.578125 -5.421875 C 2.359375 -5.003906 2.25 -4.53125 2.25 -4 C 2.25 -3.5 2.359375 -3.03125 2.578125 -2.59375 C 2.804688 -2.164062 3.125 -1.816406 3.53125 -1.546875 C 3.945312 -1.273438 4.453125 -1.140625 5.046875 -1.140625 C 5.484375 -1.140625 5.921875 -1.242188 6.359375 -1.453125 C 6.796875 -1.660156 7.160156 -1.972656 7.453125 -2.390625 C 7.753906 -2.804688 7.90625 -3.332031 7.90625 -3.96875 Z M 7.90625 -3.96875 "/></g></g></g><g fill="#2b5fc0" fill-opacity="1"><g transform="translate(41.4108, 56.333308)"><g><path d="M 1.09375 0 L 1.09375 -10.265625 L 2.53125 -10.265625 L 2.53125 0 Z M 1.09375 0 "/></g></g></g><g fill="#2b5fc0" fill-opacity="1"><g transform="translate(45.046841, 56.333308)"><g><path d="M 8.875 -4.3125 C 8.882812 -4.269531 8.890625 -4.226562 8.890625 -4.1875 C 8.890625 -4.15625 8.890625 -4.113281 8.890625 -4.0625 C 8.890625 -3.90625 8.878906 -3.757812 8.859375 -3.625 L 2.140625 -3.625 C 2.140625 -3.101562 2.273438 -2.65625 2.546875 -2.28125 C 2.828125 -1.914062 3.175781 -1.628906 3.59375 -1.421875 C 4.007812 -1.222656 4.414062 -1.125 4.8125 -1.125 C 5.300781 -1.125 5.753906 -1.226562 6.171875 -1.4375 C 6.597656 -1.65625 6.929688 -1.992188 7.171875 -2.453125 L 8.640625 -2.453125 C 8.453125 -1.867188 8.15625 -1.382812 7.75 -1 C 7.351562 -0.613281 6.894531 -0.328125 6.375 -0.140625 C 5.863281 0.046875 5.335938 0.140625 4.796875 0.140625 C 4.285156 0.140625 3.785156 0.0546875 3.296875 -0.109375 C 2.804688 -0.273438 2.363281 -0.53125 1.96875 -0.875 C 1.582031 -1.21875 1.273438 -1.644531 1.046875 -2.15625 C 0.816406 -2.675781 0.703125 -3.273438 0.703125 -3.953125 C 0.703125 -4.640625 0.816406 -5.234375 1.046875 -5.734375 C 1.273438 -6.242188 1.582031 -6.671875 1.96875 -7.015625 C 2.363281 -7.359375 2.804688 -7.613281 3.296875 -7.78125 C 3.785156 -7.957031 4.296875 -8.046875 4.828125 -8.046875 C 5.472656 -8.046875 6.097656 -7.90625 6.703125 -7.625 C 7.304688 -7.34375 7.804688 -6.925781 8.203125 -6.375 C 8.609375 -5.832031 8.832031 -5.144531 8.875 -4.3125 Z M 7.375 -4.8125 C 7.28125 -5.289062 7.101562 -5.671875 6.84375 -5.953125 C 6.59375 -6.242188 6.285156 -6.453125 5.921875 -6.578125 C 5.566406 -6.710938 5.203125 -6.78125 4.828125 -6.78125 C 4.441406 -6.78125 4.066406 -6.710938 3.703125 -6.578125 C 3.335938 -6.453125 3.019531 -6.242188 2.75 -5.953125 C 2.476562 -5.660156 2.296875 -5.28125 2.203125 -4.8125 Z M 7.375 -4.8125 "/></g></g></g><g fill="#2b5fc0" fill-opacity="1"><g transform="translate(54.723397, 56.333308)"><g><path d="M 2.09375 -5.640625 C 2.09375 -5.398438 2.15625 -5.207031 2.28125 -5.0625 C 2.40625 -4.925781 2.5625 -4.828125 2.75 -4.765625 C 2.945312 -4.710938 3.148438 -4.675781 3.359375 -4.65625 C 3.566406 -4.644531 3.757812 -4.632812 3.9375 -4.625 C 4.3125 -4.601562 4.6875 -4.550781 5.0625 -4.46875 C 5.4375 -4.382812 5.78125 -4.253906 6.09375 -4.078125 C 6.40625 -3.910156 6.65625 -3.675781 6.84375 -3.375 C 7.039062 -3.082031 7.140625 -2.707031 7.140625 -2.25 C 7.140625 -1.789062 7.035156 -1.40625 6.828125 -1.09375 C 6.628906 -0.789062 6.367188 -0.550781 6.046875 -0.375 C 5.722656 -0.195312 5.363281 -0.0703125 4.96875 0 C 4.570312 0.0820312 4.191406 0.125 3.828125 0.125 C 3.273438 0.125 2.753906 0.046875 2.265625 -0.109375 C 1.785156 -0.273438 1.390625 -0.546875 1.078125 -0.921875 C 0.765625 -1.304688 0.59375 -1.8125 0.5625 -2.4375 L 2 -2.4375 C 2.019531 -1.988281 2.210938 -1.65625 2.578125 -1.4375 C 2.941406 -1.21875 3.367188 -1.109375 3.859375 -1.109375 C 4.097656 -1.109375 4.359375 -1.140625 4.640625 -1.203125 C 4.929688 -1.265625 5.179688 -1.378906 5.390625 -1.546875 C 5.597656 -1.722656 5.703125 -1.96875 5.703125 -2.28125 C 5.703125 -2.507812 5.632812 -2.6875 5.5 -2.8125 C 5.375 -2.945312 5.207031 -3.050781 5 -3.125 C 4.789062 -3.195312 4.578125 -3.25 4.359375 -3.28125 C 4.148438 -3.3125 3.957031 -3.332031 3.78125 -3.34375 C 3.425781 -3.363281 3.066406 -3.410156 2.703125 -3.484375 C 2.335938 -3.554688 2 -3.675781 1.6875 -3.84375 C 1.382812 -4.007812 1.140625 -4.234375 0.953125 -4.515625 C 0.765625 -4.804688 0.671875 -5.171875 0.671875 -5.609375 C 0.671875 -6.222656 0.828125 -6.710938 1.140625 -7.078125 C 1.453125 -7.441406 1.851562 -7.703125 2.34375 -7.859375 C 2.832031 -8.015625 3.332031 -8.09375 3.84375 -8.09375 C 4.363281 -8.09375 4.847656 -8.015625 5.296875 -7.859375 C 5.753906 -7.703125 6.128906 -7.453125 6.421875 -7.109375 C 6.710938 -6.765625 6.875 -6.316406 6.90625 -5.765625 L 5.484375 -5.765625 C 5.441406 -6.109375 5.253906 -6.363281 4.921875 -6.53125 C 4.597656 -6.707031 4.222656 -6.796875 3.796875 -6.796875 C 3.359375 -6.796875 2.960938 -6.707031 2.609375 -6.53125 C 2.265625 -6.351562 2.09375 -6.054688 2.09375 -5.640625 Z M 2.09375 -5.640625 "/></g></g></g><g fill="#2b5fc0" fill-opacity="1"><g transform="translate(62.362014, 56.333308)"><g/></g></g><g fill="#2b5fc0" fill-opacity="1"><g transform="translate(66.012994, 56.333308)"><g><path d="M 5.8125 -7.015625 C 5.8125 -7.359375 5.6875 -7.617188 5.4375 -7.796875 C 5.195312 -7.984375 4.878906 -8.078125 4.484375 -8.078125 C 4.097656 -8.078125 3.78125 -8 3.53125 -7.84375 C 3.289062 -7.6875 3.171875 -7.46875 3.171875 -7.1875 C 3.171875 -7 3.234375 -6.847656 3.359375 -6.734375 C 3.484375 -6.628906 3.632812 -6.550781 3.8125 -6.5 C 4 -6.457031 4.175781 -6.425781 4.34375 -6.40625 C 4.507812 -6.394531 4.632812 -6.382812 4.71875 -6.375 C 5.082031 -6.320312 5.457031 -6.25 5.84375 -6.15625 C 6.238281 -6.070312 6.609375 -5.945312 6.953125 -5.78125 C 7.304688 -5.613281 7.613281 -5.378906 7.875 -5.078125 C 8.144531 -4.785156 8.332031 -4.410156 8.4375 -3.953125 C 8.488281 -3.691406 8.515625 -3.453125 8.515625 -3.234375 C 8.515625 -2.703125 8.394531 -2.226562 8.15625 -1.8125 C 7.925781 -1.394531 7.613281 -1.039062 7.21875 -0.75 C 6.832031 -0.46875 6.398438 -0.25 5.921875 -0.09375 C 5.453125 0.0507812 4.972656 0.125 4.484375 0.125 C 4.066406 0.125 3.628906 0.0546875 3.171875 -0.078125 C 2.710938 -0.210938 2.285156 -0.421875 1.890625 -0.703125 C 1.492188 -0.992188 1.171875 -1.367188 0.921875 -1.828125 C 0.671875 -2.285156 0.546875 -2.84375 0.546875 -3.5 L 3.078125 -3.5 C 3.078125 -3.164062 3.15625 -2.910156 3.3125 -2.734375 C 3.46875 -2.566406 3.65625 -2.453125 3.875 -2.390625 C 4.101562 -2.328125 4.3125 -2.296875 4.5 -2.296875 C 4.90625 -2.296875 5.253906 -2.359375 5.546875 -2.484375 C 5.835938 -2.617188 5.984375 -2.832031 5.984375 -3.125 C 5.984375 -3.3125 5.921875 -3.453125 5.796875 -3.546875 C 5.671875 -3.648438 5.519531 -3.726562 5.34375 -3.78125 C 5.164062 -3.832031 4.992188 -3.863281 4.828125 -3.875 C 4.660156 -3.894531 4.523438 -3.910156 4.421875 -3.921875 C 4.015625 -3.960938 3.59375 -4.023438 3.15625 -4.109375 C 2.726562 -4.203125 2.332031 -4.347656 1.96875 -4.546875 C 1.601562 -4.742188 1.296875 -5.023438 1.046875 -5.390625 C 0.804688 -5.753906 0.660156 -6.226562 0.609375 -6.8125 L 0.609375 -6.796875 C 0.578125 -7.546875 0.734375 -8.191406 1.078125 -8.734375 C 1.429688 -9.273438 1.910156 -9.6875 2.515625 -9.96875 C 3.117188 -10.257812 3.789062 -10.40625 4.53125 -10.40625 C 4.988281 -10.40625 5.441406 -10.335938 5.890625 -10.203125 C 6.335938 -10.078125 6.75 -9.875 7.125 -9.59375 C 7.5 -9.320312 7.796875 -8.972656 8.015625 -8.546875 C 8.234375 -8.117188 8.34375 -7.609375 8.34375 -7.015625 Z M 5.8125 -7.015625 "/></g></g></g><g fill="#2b5fc0" fill-opacity="1"><g transform="translate(75.191237, 56.333308)"><g><path d="M 6.4375 -8.046875 L 7.953125 -8.046875 L 3.796875 2.453125 L 2.265625 2.453125 L 3.390625 -0.40625 L 0.296875 -8.046875 L 1.8125 -8.046875 L 3.25 -4.53125 L 4.140625 -1.9375 L 5.078125 -4.515625 Z M 6.4375 -8.046875 "/></g></g></g><g fill="#2b5fc0" fill-opacity="1"><g transform="translate(83.430971, 56.333308)"><g><path d="M 1.09375 0 L 1.09375 -10.265625 L 2.53125 -10.265625 L 2.53125 0 Z M 1.09375 0 "/></g></g></g><g fill="#2b5fc0" fill-opacity="1"><g transform="translate(87.06701, 56.333308)"><g><path d="M 1.09375 0 L 1.09375 -10.265625 L 2.53125 -10.265625 L 2.53125 0 Z M 1.09375 0 "/></g></g></g><g fill="#2b5fc0" fill-opacity="1"><g transform="translate(90.70305, 56.333308)"><g><path d="M 9.34375 0 L 7.90625 0 L 7.90625 -1.0625 C 7.71875 -0.78125 7.460938 -0.550781 7.140625 -0.375 C 6.816406 -0.207031 6.472656 -0.0820312 6.109375 0 C 5.742188 0.0820312 5.398438 0.125 5.078125 0.125 C 4.148438 0.125 3.367188 -0.0664062 2.734375 -0.453125 C 2.097656 -0.835938 1.617188 -1.34375 1.296875 -1.96875 C 0.972656 -2.601562 0.8125 -3.28125 0.8125 -4 C 0.8125 -4.71875 0.972656 -5.382812 1.296875 -6 C 1.628906 -6.613281 2.113281 -7.109375 2.75 -7.484375 C 3.382812 -7.867188 4.148438 -8.0625 5.046875 -8.0625 C 5.378906 -8.0625 5.71875 -8.03125 6.0625 -7.96875 C 6.414062 -7.90625 6.753906 -7.785156 7.078125 -7.609375 C 7.398438 -7.441406 7.679688 -7.195312 7.921875 -6.875 L 7.90625 -7.921875 L 9.34375 -7.921875 Z M 7.90625 -3.96875 C 7.90625 -4.601562 7.757812 -5.128906 7.46875 -5.546875 C 7.175781 -5.960938 6.8125 -6.273438 6.375 -6.484375 C 5.9375 -6.691406 5.492188 -6.796875 5.046875 -6.796875 C 4.460938 -6.796875 3.960938 -6.671875 3.546875 -6.421875 C 3.128906 -6.171875 2.804688 -5.835938 2.578125 -5.421875 C 2.359375 -5.003906 2.25 -4.53125 2.25 -4 C 2.25 -3.5 2.359375 -3.03125 2.578125 -2.59375 C 2.804688 -2.164062 3.125 -1.816406 3.53125 -1.546875 C 3.945312 -1.273438 4.453125 -1.140625 5.046875 -1.140625 C 5.484375 -1.140625 5.921875 -1.242188 6.359375 -1.453125 C 6.796875 -1.660156 7.160156 -1.972656 7.453125 -2.390625 C 7.753906 -2.804688 7.90625 -3.332031 7.90625 -3.96875 Z M 7.90625 -3.96875 "/></g></g></g><g fill="#2b5fc0" fill-opacity="1"><g transform="translate(100.995383, 56.333308)"><g><path d="M 2.578125 -6.90625 C 2.921875 -7.375 3.328125 -7.679688 3.796875 -7.828125 C 4.273438 -7.984375 4.757812 -8.0625 5.25 -8.0625 C 6.144531 -8.0625 6.890625 -7.867188 7.484375 -7.484375 C 8.085938 -7.109375 8.546875 -6.613281 8.859375 -6 C 9.171875 -5.382812 9.328125 -4.71875 9.328125 -4 C 9.328125 -3.28125 9.175781 -2.601562 8.875 -1.96875 C 8.570312 -1.34375 8.117188 -0.835938 7.515625 -0.453125 C 6.910156 -0.0664062 6.144531 0.125 5.21875 0.125 C 4.726562 0.125 4.234375 0.0351562 3.734375 -0.140625 C 3.242188 -0.328125 2.859375 -0.632812 2.578125 -1.0625 L 2.578125 0 L 1.140625 0 L 1.140625 -10.265625 L 2.578125 -10.265625 Z M 2.578125 -3.96875 C 2.578125 -3.332031 2.707031 -2.804688 2.96875 -2.390625 C 3.226562 -1.972656 3.5625 -1.660156 3.96875 -1.453125 C 4.375 -1.242188 4.796875 -1.140625 5.234375 -1.140625 C 5.816406 -1.140625 6.304688 -1.273438 6.703125 -1.546875 C 7.097656 -1.828125 7.394531 -2.179688 7.59375 -2.609375 C 7.789062 -3.035156 7.890625 -3.488281 7.890625 -3.96875 C 7.890625 -4.445312 7.789062 -4.898438 7.59375 -5.328125 C 7.394531 -5.765625 7.097656 -6.117188 6.703125 -6.390625 C 6.316406 -6.660156 5.832031 -6.796875 5.25 -6.796875 C 4.8125 -6.796875 4.382812 -6.691406 3.96875 -6.484375 C 3.5625 -6.273438 3.226562 -5.960938 2.96875 -5.546875 C 2.707031 -5.128906 2.578125 -4.601562 2.578125 -3.96875 Z M 2.578125 -3.96875 "/></g></g></g><g fill="#2b5fc0" fill-opacity="1"><g transform="translate(110.979829, 56.333308)"><g><path d="M 6.953125 -1.046875 C 6.648438 -0.609375 6.285156 -0.300781 5.859375 -0.125 C 5.429688 0.0390625 4.957031 0.125 4.4375 0.125 C 3.632812 0.125 2.976562 -0.03125 2.46875 -0.34375 C 1.96875 -0.664062 1.597656 -1.109375 1.359375 -1.671875 C 1.117188 -2.242188 1 -2.910156 1 -3.671875 L 1 -8 L 2.4375 -8 L 2.4375 -3.671875 C 2.4375 -3.179688 2.488281 -2.742188 2.59375 -2.359375 C 2.707031 -1.972656 2.914062 -1.675781 3.21875 -1.46875 C 3.519531 -1.257812 3.960938 -1.15625 4.546875 -1.15625 C 5.296875 -1.15625 5.867188 -1.390625 6.265625 -1.859375 C 6.671875 -2.335938 6.875 -2.925781 6.875 -3.625 L 6.875 -8 L 8.3125 -8 L 8.3125 0 L 6.953125 0 Z M 6.953125 -1.046875 "/></g></g></g><g fill="#2b5fc0" fill-opacity="1"><g transform="translate(120.421798, 56.333308)"><g><path d="M 2.09375 -5.640625 C 2.09375 -5.398438 2.15625 -5.207031 2.28125 -5.0625 C 2.40625 -4.925781 2.5625 -4.828125 2.75 -4.765625 C 2.945312 -4.710938 3.148438 -4.675781 3.359375 -4.65625 C 3.566406 -4.644531 3.757812 -4.632812 3.9375 -4.625 C 4.3125 -4.601562 4.6875 -4.550781 5.0625 -4.46875 C 5.4375 -4.382812 5.78125 -4.253906 6.09375 -4.078125 C 6.40625 -3.910156 6.65625 -3.675781 6.84375 -3.375 C 7.039062 -3.082031 7.140625 -2.707031 7.140625 -2.25 C 7.140625 -1.789062 7.035156 -1.40625 6.828125 -1.09375 C 6.628906 -0.789062 6.367188 -0.550781 6.046875 -0.375 C 5.722656 -0.195312 5.363281 -0.0703125 4.96875 0 C 4.570312 0.0820312 4.191406 0.125 3.828125 0.125 C 3.273438 0.125 2.753906 0.046875 2.265625 -0.109375 C 1.785156 -0.273438 1.390625 -0.546875 1.078125 -0.921875 C 0.765625 -1.304688 0.59375 -1.8125 0.5625 -2.4375 L 2 -2.4375 C 2.019531 -1.988281 2.210938 -1.65625 2.578125 -1.4375 C 2.941406 -1.21875 3.367188 -1.109375 3.859375 -1.109375 C 4.097656 -1.109375 4.359375 -1.140625 4.640625 -1.203125 C 4.929688 -1.265625 5.179688 -1.378906 5.390625 -1.546875 C 5.597656 -1.722656 5.703125 -1.96875 5.703125 -2.28125 C 5.703125 -2.507812 5.632812 -2.6875 5.5 -2.8125 C 5.375 -2.945312 5.207031 -3.050781 5 -3.125 C 4.789062 -3.195312 4.578125 -3.25 4.359375 -3.28125 C 4.148438 -3.3125 3.957031 -3.332031 3.78125 -3.34375 C 3.425781 -3.363281 3.066406 -3.410156 2.703125 -3.484375 C 2.335938 -3.554688 2 -3.675781 1.6875 -3.84375 C 1.382812 -4.007812 1.140625 -4.234375 0.953125 -4.515625 C 0.765625 -4.804688 0.671875 -5.171875 0.671875 -5.609375 C 0.671875 -6.222656 0.828125 -6.710938 1.140625 -7.078125 C 1.453125 -7.441406 1.851562 -7.703125 2.34375 -7.859375 C 2.832031 -8.015625 3.332031 -8.09375 3.84375 -8.09375 C 4.363281 -8.09375 4.847656 -8.015625 5.296875 -7.859375 C 5.753906 -7.703125 6.128906 -7.453125 6.421875 -7.109375 C 6.710938 -6.765625 6.875 -6.316406 6.90625 -5.765625 L 5.484375 -5.765625 C 5.441406 -6.109375 5.253906 -6.363281 4.921875 -6.53125 C 4.597656 -6.707031 4.222656 -6.796875 3.796875 -6.796875 C 3.359375 -6.796875 2.960938 -6.707031 2.609375 -6.53125 C 2.265625 -6.351562 2.09375 -6.054688 2.09375 -5.640625 Z M 2.09375 -5.640625 "/></g></g></g></svg>