<svg width="218" height="50" viewBox="0 0 218 50" fill="none" xmlns="http://www.w3.org/2000/svg">
<path d="M96.4122 42.6908C106.164 32.9389 106.164 17.0802 96.4122 7.32824C91.6985 2.59542 85.4198 0 78.7404 0C72.1183 0 65.8588 2.57634 61.145 7.23282C60.3244 7.9771 56.0496 11.9466 51.3359 18.6069L50.9542 19.1412L50.6488 18.5687C46.8511 11.4122 42.8435 7.5 42.6718 7.34733C37.958 2.59542 31.6794 0 25 0C18.3206 0 12.042 2.59542 7.30916 7.32824C2.59542 12.042 0 18.3206 0 25C0 31.6794 2.59542 37.958 7.30916 42.6908C17.0229 52.3855 32.8435 52.4237 42.5954 42.7672C43.187 42.2328 45.2863 40.2481 48.0343 37.0229L48.5878 36.374L48.7405 37.2137C49.2366 40.0954 49.5038 43.0725 49.5038 46.0305V49.6756H57.4427V46.0305C57.4427 39.9046 56.5267 33.9122 54.7137 28.2061L54.6565 28.0343L55.2481 27.0802C60.687 18.2443 66.4122 13.1679 66.4695 13.1107L66.6794 12.9198C69.8855 9.69466 74.1794 7.93893 78.7404 7.93893C83.3015 7.93893 87.5763 9.71374 90.8015 12.9389C97.4427 19.5992 97.4618 30.4198 90.8015 37.0802C83.8168 44.0649 74.2366 42.7099 67.9962 39.3511L64.1221 46.2786C68.6069 48.7214 73.5305 50 78.3588 50C85.2863 50 91.6985 47.4046 96.4122 42.6908ZM45.6679 27.1565C41.2595 33.3015 37.271 36.8702 37.2328 36.9084L37.0611 37.0802C33.7405 40.4008 29.3702 42.0611 25 42.0611C20.6298 42.0611 16.2595 40.4008 12.9389 37.0802C6.27863 30.4198 6.27863 19.5992 12.9389 12.9389C16.1641 9.71374 20.458 7.93893 25 7.93893C29.5611 7.93893 33.855 9.73282 37.1183 12.9771C37.1565 13.0153 42.0992 17.9198 45.7252 26.7748L45.8015 26.9847L45.6679 27.1565Z" fill="white"/>
<path d="M127.269 28.9313L127.326 29.0458L130.151 33.8359H133.605L129.54 27.1374L129.616 27.0611C131.601 25.1908 132.632 23.3206 132.727 21.3359H129.54C129.12 23.7595 127.899 25.5153 125.628 26.9847L125.437 27.0992V16.0305L122.25 16.2214V33.8359H125.437V30.1527L125.494 30.1145C126.029 29.7901 126.544 29.4275 127.155 28.9885L127.269 28.9313Z" fill="white"/>
<path d="M142.576 23.8169L143.034 21.2405C142.5 21.126 141.698 21.0497 140.935 21.0497C139.16 21.0497 137.118 21.4695 135.82 22.0993V33.8359H139.007V24.1222L139.084 24.084C139.713 23.7787 140.362 23.6451 141.202 23.6451C141.736 23.6642 142.213 23.7024 142.576 23.8169Z" fill="white"/>
<path d="M148.355 21.355H145.168V33.8359H148.355V21.355Z" fill="white"/>
<path d="M146.773 15.8397C145.608 15.8397 144.902 16.5077 144.902 17.6336C144.902 18.7596 145.608 19.4275 146.773 19.4275C147.918 19.4275 148.624 18.7405 148.624 17.6336C148.605 16.5267 147.899 15.8397 146.773 15.8397Z" fill="white"/>
<path d="M156.562 34.1412C157.325 34.1412 158.05 34.0649 158.604 33.9504L158.451 31.4313C158.184 31.4885 157.745 31.5458 157.249 31.5458C156.027 31.5458 155.417 30.8015 155.417 29.313V23.8549H158.184V21.3549H155.417V18.416L152.23 18.5878V21.3549H150.531V23.8549H152.23V29.3511C152.192 32.5763 153.623 34.1412 156.562 34.1412Z" fill="white"/>
<path d="M169.825 30.2481C169.825 28.187 168.737 27.1565 165.684 26.2977C164.233 25.8778 163.527 25.6488 163.527 24.7901C163.527 24.2748 163.852 23.645 165.398 23.645C166.523 23.645 167.554 23.9122 168.756 24.2748L169.1 21.7175C168.012 21.2977 166.466 21.0305 165.13 21.0305C162.115 21.0305 160.398 22.4236 160.398 24.8473C160.398 26.7748 161.504 27.9198 163.966 28.5687C166.008 29.1412 166.714 29.3893 166.714 30.3053C166.714 31.0496 165.932 31.5267 164.653 31.5267C163.432 31.5267 162.134 31.2786 160.798 30.7824L160.359 33.3588C161.485 33.8359 163.184 34.1412 164.73 34.1412C167.917 34.1412 169.825 32.6908 169.825 30.2481Z" fill="white"/>
<path d="M180.189 26.2977V33.855H183.376V26.0496C183.376 22.8435 181.392 21.0687 177.766 21.0687C175.915 21.0687 173.815 21.4695 172.27 22.1183V33.8359H175.437V24.1412L175.514 24.1031C176.182 23.7977 176.926 23.6451 177.747 23.6451C179.369 23.6641 180.189 24.542 180.189 26.2977Z" fill="white"/>
<path d="M190.856 34.1413C193.757 34.1413 195.589 33.3779 196.161 33.0917V26.2405C196.161 22.8436 194.31 21.0497 190.798 21.0497C189.348 21.0497 187.688 21.3359 186.638 21.7558L187.211 24.2176C188.375 23.7596 189.596 23.6642 190.417 23.6642C192.173 23.6642 193.069 24.4657 193.069 26.0306V26.7749L192.936 26.7558C192.344 26.6604 191.447 26.5649 190.741 26.5649C187.726 26.584 185.856 28.0535 185.856 30.3817C185.837 32.7291 187.707 34.1413 190.856 34.1413ZM191.18 28.4543C191.753 28.4543 192.363 28.5306 192.974 28.6642L193.069 28.6833V31.5077L193.012 31.5459C192.573 31.7749 191.924 31.9085 191.218 31.9085C189.806 31.9085 189.024 31.2978 189.024 30.1909C189.005 29.1031 189.806 28.4543 191.18 28.4543Z" fill="white"/>
<path d="M212.346 23.6641C213.93 23.6641 214.712 24.5229 214.712 26.2977V33.855H217.88V26.0496C217.88 22.8435 215.972 21.0687 212.499 21.0687C210.705 21.0687 209.102 21.7748 208.491 22.0802L208.415 22.1183L208.358 22.0802C207.499 21.4122 206.354 21.0878 204.922 21.0878C202.995 21.0878 201.01 21.4695 199.445 22.1374V33.855H202.613V24.1603L202.69 24.1222C203.358 23.8168 204.045 23.6641 204.751 23.6641C206.354 23.6641 207.117 24.5038 207.117 26.2977V33.855H210.209V26.7176C210.209 25.8397 210.113 25.0764 209.922 24.4084L209.903 24.313L209.98 24.2748C210.667 23.8741 211.525 23.6641 212.346 23.6641Z" fill="white"/>
</svg>
